<!DOCTYPE svg PUBLIC "-//W3C//DTD SVG 20010904//EN" "http://www.w3.org/TR/2001/REC-SVG-20010904/DTD/svg10.dtd"[]><svg version="1.0" xmlns="http://www.w3.org/2000/svg" width="121" height="60" viewBox="0 0 1012.000000 506.000000" preserveAspectRatio="xMidYMid meet"><g transform="translate(0.000000,506.000000) scale(0.100000,-0.100000)" fill="#000000" stroke="none"><path d="M6790 3687 c-60 -17 -114 -51 -145 -92 l-26 -33 0 -400 c0 -425 1 -432 48 -474 45 -41 128 -68 231 -76 l100 -7 -88 -223 c-58 -147 -83 -221 -73 -218 8 4 178 104 377 224 l361 217 595 6 c449 4 604 8 630 18 55 20 112 63 135 101 19 33 20 53 23 402 2 243 -1 381 -8 408 -15 55 -59 103 -122 131 l-53 24 -970 2 c-745 1 -981 -1 -1015 -10z m1985 -12 c74 -19 129 -55 152 -97 16 -30 18 -68 18 -413 0 -209 -3 -392 -7 -406 -11 -38 -55 -78 -118 -108 l-55 -26 -593 -3 -593 -3 -366 -220 c-201 -121 -367 -218 -368 -217 -1 2 36 99 82 217 46 117 83 215 81 216 -2 1 -49 5 -106 9 -123 7 -185 30 -237 87 l-35 39 0 403 c0 452 -2 439 76 488 78 48 71 48 1069 48 817 1 949 -1 1000 -14z" /><path d="M6825 3240 c-29 -56 -32 -80 -10 -80 19 0 19 -9 0 -34 -28 -37 -19 -48 28 -41 23 4 47 11 52 15 6 4 20 11 33 14 16 5 22 3 22 -7 0 -16 84 -50 94 -39 16 16 1 31 -41 42 -44 11 -46 13 -29 25 16 12 23 11 54 -6 44 -23 58 -24 66 -4 4 11 22 15 71 15 l65 0 0 -50 c0 -49 -1 -50 -30 -50 -23 0 -30 -4 -30 -20 0 -16 7 -20 34 -20 50 0 66 21 66 86 l0 54 60 0 c46 0 60 3 60 15 0 10 -15 15 -57 17 -57 3 -58 3 -61 36 l-3 32 50 0 c39 0 51 4 51 15 0 13 -21 15 -125 15 -104 0 -125 -2 -125 -15 0 -12 13 -15 56 -15 l55 0 -3 -32 c-3 -33 -3 -33 -63 -36 -38 -2 -63 -8 -68 -17 -6 -11 -14 -12 -37 -3 -17 5 -30 12 -30 15 0 2 11 19 25 37 37 48 33 56 -30 56 -44 0 -53 3 -49 15 4 10 0 15 -13 15 -12 0 -23 -11 -30 -31 -10 -25 -17 -30 -33 -26 -13 3 -24 -1 -30 -14 -21 -38 -30 -18 -10 21 24 47 24 50 5 50 -8 0 -26 -22 -40 -50z m190 -30 c-14 -15 -21 -17 -32 -9 -22 19 -15 29 19 29 30 0 31 0 13 -20z m-57 -22 c19 -19 14 -27 -28 -39 -22 -7 -40 -16 -40 -21 0 -4 -9 -8 -20 -8 -18 0 -18 1 -2 30 11 20 23 28 33 25 9 -3 19 1 23 10 7 18 18 19 34 3z" /><path d="M7722 3277 c-17 -20 32 -67 50 -49 10 10 7 18 -13 38 -21 21 -28 23 -37 11z" /><path d="M8110 3260 c0 -16 -4 -30 -10 -30 -5 0 -10 7 -10 15 0 11 -11 15 -40 15 l-40 0 0 -115 c0 -96 3 -115 15 -115 8 0 15 4 15 9 0 5 10 11 23 13 16 2 23 11 25 31 5 42 22 32 22 -13 0 -33 -3 -40 -20 -40 -13 0 -18 -5 -14 -15 8 -21 51 -19 63 3 6 9 11 11 11 5 0 -9 21 -13 70 -13 56 0 70 3 70 15 0 8 -7 15 -16 15 -14 0 -15 7 -10 38 19 115 19 112 3 112 -11 0 -19 -17 -27 -57 -19 -95 -17 -93 -61 -93 -39 0 -39 0 -39 40 0 28 4 40 14 40 8 0 16 6 19 13 2 6 7 -7 11 -31 9 -51 31 -51 30 0 -1 52 -13 88 -28 88 -8 0 -16 -9 -19 -21 -7 -24 -27 -16 -27 10 0 21 35 31 106 31 45 0 59 14 24 23 -11 3 -24 17 -30 31 -5 14 -17 26 -26 26 -12 0 -14 -6 -9 -30 6 -29 5 -30 -29 -30 -33 0 -36 2 -36 30 0 20 -5 30 -15 30 -10 0 -15 -10 -15 -30z m-63 -142 c-2 -24 -4 -7 -4 37 0 44 2 63 4 43 2 -21 2 -57 0 -80z m63 52 c0 -16 -4 -30 -10 -30 -5 0 -10 14 -10 30 0 17 5 30 10 30 6 0 10 -13 10 -30z" /><path d="M7790 3210 l0 -71 35 7 c23 4 35 2 35 -5 0 -6 -19 -11 -46 -11 -36 0 -45 -3 -41 -15 4 -8 2 -17 -3 -20 -6 -4 -10 17 -10 50 l0 56 -32 -3 c-37 -4 -48 -23 -17 -31 19 -5 21 -11 18 -71 -2 -35 0 -68 4 -72 10 -11 69 48 63 63 -4 9 4 13 22 13 l27 -1 -39 -35 c-31 -26 -37 -37 -28 -46 9 -9 20 -4 47 22 l35 34 0 -37 c0 -30 4 -37 20 -37 16 0 20 7 20 36 l0 35 37 -30 c20 -16 40 -28 45 -25 17 11 7 30 -30 54 l-37 25 38 3 c24 2 37 8 37 18 0 10 -13 14 -45 14 -26 0 -45 5 -45 11 0 7 12 9 35 5 l35 -7 0 71 0 70 -90 0 -90 0 0 -70z m70 30 c0 -5 -9 -10 -20 -10 -11 0 -20 5 -20 10 0 6 9 10 20 10 11 0 20 -4 20 -10z m80 0 c0 -5 -9 -10 -20 -10 -11 0 -20 5 -20 10 0 6 9 10 20 10 11 0 20 -4 20 -10z m-80 -50 c0 -5 -9 -10 -20 -10 -11 0 -20 5 -20 10 0 6 9 10 20 10 11 0 20 -4 20 -10z m80 0 c0 -5 -9 -10 -20 -10 -11 0 -20 5 -20 10 0 6 9 10 20 10 11 0 20 -4 20 -10z" /><path d="M7400 3256 c0 -11 15 -16 53 -18 l52 -3 3 -117 c2 -110 4 -118 22 -118 18 0 20 7 20 80 0 44 3 80 6 80 3 0 26 -14 51 -31 39 -28 47 -30 60 -17 13 13 6 20 -51 54 -86 51 -84 68 7 72 51 2 67 6 67 17 0 13 -25 15 -145 15 -120 0 -145 -3 -145 -14z" /><path d="M8350 3185 c0 -78 2 -85 20 -85 18 0 20 7 20 85 0 78 -2 85 -20 85 -18 0 -20 -7 -20 -85z" /><path d="M8629 3139 c-16 -31 6 -52 27 -25 12 17 17 18 39 8 40 -18 73 -15 85 9 15 27 6 35 -24 20 -17 -10 -29 -10 -44 -2 -33 18 -70 13 -83 -10z" /><path d="M8353 3064 c-8 -21 13 -42 28 -27 13 13 5 43 -11 43 -6 0 -13 -7 -17 -16z" /><path d="M6843 3058 c-26 -5 -43 -15 -43 -24 0 -17 5 -17 68 -3 43 10 57 9 113 -10 75 -25 75 -25 83 -6 8 21 -133 63 -145 43 -7 -10 -9 -10 -9 0 0 14 -8 14 -67 0z" /><path d="M4452 3383 c-12 -23 -25 -83 -18 -83 3 0 10 18 16 41 6 22 17 42 24 45 21 8 183 -42 261 -80 38 -19 71 -33 73 -32 7 8 -132 72 -211 97 -104 34 -133 36 -145 12z" /><path d="M4475 3370 c-3 -5 -2 -10 4 -10 9 0 101 -121 101 -133 0 -4 14 -28 30 -54 22 -34 29 -55 25 -73 -6 -22 -5 -23 7 -8 12 16 17 12 55 -45 75 -112 139 -221 171 -289 17 -38 33 -68 36 -68 7 0 -58 141 -91 199 -42 73 -311 479 -322 485 -5 4 -12 2 -16 -4z" /><path d="M3680 3343 c-41 -5 -151 -36 -229 -64 -98 -36 -254 -110 -246 -117 2 -2 16 3 32 11 15 8 71 31 123 52 80 31 98 34 115 24 18 -11 18 -10 7 3 -11 14 -8 18 21 27 33 11 67 7 67 -8 0 -4 -18 -16 -39 -27 -22 -10 -37 -22 -35 -25 4 -7 -26 -23 -38 -21 -5 1 -8 -4 -8 -10 0 -7 -25 -38 -56 -68 -104 -103 -314 -391 -314 -430 0 -12 8 -20 23 -22 18 -2 26 -16 44 -72 26 -81 39 -93 69 -65 20 19 24 19 46 6 32 -20 76 -29 83 -17 3 6 7 28 7 50 0 26 5 40 14 40 22 0 27 21 14 61 -12 34 -11 49 8 118 12 43 22 87 22 99 0 24 -29 33 -85 25 l-41 -5 4 37 c4 31 21 53 109 141 58 57 113 104 123 104 10 0 22 5 26 12 4 7 3 8 -4 4 -7 -4 -12 -5 -12 -2 0 3 10 10 21 17 12 6 19 7 15 1 -3 -5 1 -13 10 -16 8 -3 13 -2 10 3 -3 5 2 8 11 7 9 0 18 5 20 12 3 7 -1 10 -11 6 -9 -3 -16 -2 -16 4 0 5 6 12 14 15 29 11 36 -22 10 -47 -9 -9 -11 -16 -4 -16 6 0 8 -5 4 -12 -4 -7 -9 -26 -11 -43 -5 -50 -33 -153 -74 -275 -44 -129 -177 -410 -194 -410 -9 0 -8 -17 2 -62 28 -133 11 -280 -45 -395 -28 -60 -45 -69 -34 -20 4 17 7 77 7 132 -1 99 -14 165 -53 262 -28 70 -39 54 -41 -54 -1 -54 -5 -101 -9 -104 -4 -4 -26 -9 -49 -13 -47 -7 -42 -16 -58 104 -9 65 -87 291 -99 287 -6 -2 -12 -35 -14 -73 -3 -83 -39 -331 -53 -373 -7 -21 -15 -28 -26 -24 -9 4 -20 -1 -25 -12 -8 -14 -12 -15 -19 -4 -6 10 -9 6 -9 -13 0 -33 10 -36 28 -7 10 16 16 18 27 9 11 -9 17 -5 29 25 19 45 53 224 61 325 4 41 8 77 10 79 15 14 85 -238 85 -305 0 -36 -3 -44 -19 -44 -28 0 -81 -21 -81 -32 0 -5 17 -8 38 -7 28 2 36 0 32 -11 -13 -45 -11 -145 5 -180 30 -66 105 -81 148 -30 31 36 46 142 29 205 -9 32 -8 42 4 48 19 11 18 37 -1 37 -12 0 -15 15 -15 78 1 86 11 82 36 -12 27 -99 33 -178 18 -267 -7 -46 -14 -85 -14 -86 0 -2 9 -3 21 -3 23 0 21 -14 -13 -86 -24 -51 -58 -84 -128 -124 -30 -18 -46 -29 -35 -25 60 22 62 21 60 -38 -2 -51 -1 -54 19 -49 29 7 128 110 149 154 16 35 84 108 99 108 11 0 10 -38 -3 -83 -6 -22 -8 -41 -5 -44 19 -20 124 71 161 141 11 20 23 36 27 36 4 0 24 -10 45 -22 52 -31 162 -32 212 -3 49 29 49 41 0 48 -60 8 -144 91 -121 120 10 14 23 47 18 47 -2 0 -13 -14 -24 -32 l-21 -32 29 -40 c35 -46 76 -76 108 -76 12 0 22 -5 22 -10 0 -31 -156 -43 -207 -16 -16 8 -35 26 -43 40 -17 33 -26 33 -34 -1 -13 -48 -119 -182 -147 -183 -3 0 -1 27 4 60 8 48 13 58 23 49 15 -13 49 2 62 29 16 29 23 108 13 133 -5 13 -17 57 -26 97 -9 40 -29 103 -44 140 l-28 67 20 45 c38 86 77 203 77 231 0 18 -9 34 -27 47 l-28 20 30 6 c89 18 133 30 158 43 15 7 27 10 27 5 0 -12 -91 -97 -110 -104 -12 -4 -12 -9 -1 -36 8 -18 16 -31 18 -28 3 2 0 13 -5 23 -13 23 -9 29 45 71 36 28 83 88 83 105 0 3 -24 -5 -52 -17 -58 -26 -155 -49 -168 -41 -5 3 8 49 27 103 50 139 103 303 107 332 7 46 18 80 28 80 5 0 22 -7 39 -15 29 -16 49 -13 49 6 0 6 -16 26 -35 45 -19 18 -35 35 -35 37 0 2 18 10 40 17 44 15 65 33 55 50 -6 10 -18 10 -85 3z m36 -30 c-15 -8 -30 -12 -34 -9 -3 3 0 6 7 6 7 0 10 4 7 9 -3 5 6 9 21 9 l27 0 -28 -15z m-59 -9 c-3 -3 -12 -4 -19 -1 -8 3 -5 6 6 6 11 1 17 -2 13 -5z m-65 -16 c-9 -9 -15 -9 -24 0 -9 9 -7 12 12 12 19 0 21 -3 12 -12z m113 -78 c3 -5 2 -10 -4 -10 -5 0 -13 5 -16 10 -3 6 -2 10 4 10 5 0 13 -4 16 -10z m-415 -320 c8 5 34 10 58 10 50 0 52 -7 23 -118 -15 -58 -17 -79 -8 -107 9 -32 8 -37 -11 -50 -12 -9 -22 -29 -24 -48 -3 -34 -16 -38 -81 -21 -21 5 -31 2 -41 -11 -16 -22 -23 -13 -45 64 -13 42 -24 59 -44 69 l-26 13 20 37 c12 20 51 79 88 130 l66 93 5 -35 c4 -29 8 -34 20 -26z m-155 -720 c-3 -5 -13 -10 -21 -10 -8 0 -14 5 -14 10 0 6 9 10 21 10 11 0 17 -4 14 -10z m269 -129 c18 -101 20 -138 8 -143 -4 -1 -17 -16 -30 -32 l-22 -29 0 32 c0 21 -5 31 -15 31 -10 0 -15 -10 -15 -32 0 -18 -7 -44 -14 -58 -8 -14 -25 -47 -37 -73 -18 -40 -110 -137 -129 -137 -3 0 -3 22 -2 50 3 42 9 53 38 75 43 33 79 94 98 166 8 31 23 74 34 95 11 22 28 72 38 112 21 83 25 79 48 -57z m-228 87 c14 -22 12 -132 -2 -180 -13 -42 -18 -48 -49 -54 -40 -7 -58 4 -82 50 -18 35 -20 131 -3 151 14 17 45 21 35 5 -3 -6 4 -10 17 -10 22 0 22 1 -6 19 l-29 19 24 5 c48 9 88 7 95 -5z" /><path d="M3118 2123 c7 -3 16 -2 19 1 4 3 -2 6 -13 5 -11 0 -14 -3 -6 -6z" /><path d="M3150 2105 c0 -8 4 -15 10 -15 5 0 7 7 4 15 -4 8 -8 15 -10 15 -2 0 -4 -7 -4 -15z" /><path d="M3505 3270 c-18 -8 -17 -9 7 -9 15 -1 30 4 33 9 7 12 -12 12 -40 0z" /><path d="M4432 3260 c0 -14 2 -19 5 -12 2 6 2 18 0 25 -3 6 -5 1 -5 -13z" /><path d="M4853 3237 c9 -7 47 -32 83 -57 37 -25 96 -70 133 -101 69 -58 110 -86 81 -56 -49 50 -285 227 -303 227 -7 -1 -4 -6 6 -13z" /><path d="M4442 3150 c0 -14 2 -19 5 -12 2 6 2 18 0 25 -3 6 -5 1 -5 -13z" /><path d="M3085 3112 c-49 -27 -130 -73 -179 -103 l-89 -54 -111 -1 c-113 0 -161 -9 -253 -46 l-52 -21 -48 20 c-156 67 -590 145 -788 143 -60 -1 -126 3 -145 9 -47 15 -187 14 -196 -1 -11 -17 23 -36 88 -49 l59 -12 -61 -63 c-34 -35 -58 -69 -55 -74 9 -14 57 -4 108 22 43 21 52 19 61 -18 4 -14 30 -74 58 -135 l51 -109 52 0 c59 0 76 -13 99 -76 8 -21 15 -31 15 -20 1 30 -40 94 -68 105 -14 6 -41 12 -60 14 -31 2 -35 7 -59 65 -22 53 -24 65 -13 85 9 18 21 23 47 23 19 -1 34 -4 34 -8 0 -5 12 -8 28 -8 27 1 27 1 -7 15 -18 8 -47 16 -65 16 -23 1 -25 3 -8 6 25 5 25 4 12 37 -7 20 -6 24 5 19 8 -3 12 -9 9 -14 -10 -16 9 -9 22 9 12 16 13 15 14 -5 0 -13 -4 -23 -10 -23 -5 0 -10 -4 -10 -10 0 -16 40 -12 46 5 4 8 12 15 20 15 8 0 14 5 14 10 0 6 -12 8 -27 5 -23 -5 -25 -4 -10 5 23 15 22 26 -5 33 -12 4 -20 9 -17 12 3 3 21 -1 40 -9 19 -9 27 -16 19 -16 -8 -1 6 -8 33 -16 26 -8 47 -19 47 -25 0 -5 6 -9 13 -7 20 5 257 -104 257 -118 0 -37 -20 -61 -62 -73 -23 -7 -60 -22 -81 -33 -30 -15 -37 -23 -32 -39 4 -13 -2 -30 -19 -50 -14 -17 -26 -35 -26 -39 0 -15 37 -30 75 -30 l37 0 -5 -62 c-2 -35 -8 -73 -12 -85 -6 -20 -4 -23 19 -23 19 0 29 -7 36 -26 13 -33 13 -33 -12 -26 -52 13 -221 153 -233 193 -4 11 -1 26 5 34 10 13 7 15 -19 15 -24 0 -32 -5 -37 -25 -4 -15 -13 -25 -24 -25 -11 0 -22 -5 -25 -11 -4 -6 0 -9 10 -7 16 3 18 -5 16 -69 -3 -109 17 -129 107 -104 17 5 32 8 32 6 0 -1 -13 -29 -29 -61 -47 -96 -64 -163 -65 -244 0 -115 52 -212 82 -152 5 9 12 67 16 127 10 179 24 203 25 46 1 -142 15 -254 34 -269 7 -5 23 -13 36 -17 l24 -7 -5 186 c-4 165 -3 186 11 186 13 0 16 -14 17 -76 0 -53 4 -78 14 -84 8 -5 17 -7 21 -4 6 3 34 53 78 139 l15 30 9 -35 c5 -19 15 -56 22 -81 8 -25 12 -54 10 -65 -14 -68 -14 -84 -1 -84 7 0 17 10 23 22 9 20 10 19 30 -18 28 -54 55 -53 68 2 l10 42 35 -30 c19 -16 51 -38 71 -48 32 -17 37 -25 44 -72 5 -29 10 -60 11 -68 15 -92 16 -110 6 -110 -28 0 -117 89 -150 148 -34 63 -52 78 -52 43 0 -23 -38 -111 -48 -111 -4 0 -8 15 -9 33 -3 43 -27 110 -40 114 -11 4 -51 -58 -87 -132 -16 -33 -20 -36 -24 -20 -7 33 -22 34 -81 7 -70 -32 -170 -52 -239 -47 -71 5 -77 11 -47 47 51 61 58 83 40 135 -9 26 -16 70 -15 98 1 27 1 54 1 58 -1 5 -15 -3 -31 -17 -40 -34 -103 -49 -167 -43 -61 6 -73 -8 -13 -16 36 -5 113 8 178 28 20 7 22 4 22 -27 0 -19 6 -55 14 -81 13 -42 12 -48 -6 -79 -12 -18 -32 -46 -46 -63 l-25 -30 29 -12 c46 -19 173 -16 248 7 36 11 68 25 71 30 11 17 42 11 57 -12 18 -26 26 -18 71 66 18 33 37 61 44 63 16 6 26 -33 26 -104 0 -35 3 -63 8 -63 11 0 47 52 64 94 9 20 19 36 24 36 5 0 19 -15 30 -34 23 -37 115 -126 130 -126 5 0 17 -7 26 -16 14 -14 18 -14 33 -2 23 19 92 49 92 40 0 -4 -11 -42 -24 -86 -31 -98 -18 -87 19 18 16 43 38 92 50 110 18 27 27 31 64 30 32 -1 41 3 39 15 -2 10 -25 19 -73 28 -68 12 -167 46 -192 66 -20 15 -16 40 5 32 9 -4 32 -9 50 -12 42 -7 41 3 -3 93 -43 86 -82 249 -58 240 8 -3 34 -6 58 -6 l43 0 -13 -37 c-12 -35 -12 -56 1 -120 7 -35 52 -82 90 -92 53 -15 100 3 130 49 23 34 26 48 22 98 -3 39 -11 69 -27 90 l-22 32 25 11 c35 16 23 29 -29 29 -31 0 -45 5 -51 18 -11 24 -14 341 -4 347 5 3 12 -7 16 -22 29 -131 104 -270 174 -321 50 -38 44 -20 -15 40 -88 92 -154 259 -156 396 0 42 2 89 6 105 8 30 -10 39 -19 10 -3 -10 -12 -98 -21 -196 -13 -139 -14 -198 -6 -272 6 -52 11 -97 11 -100 0 -3 -8 -5 -17 -5 -57 1 -181 187 -187 279 -2 29 -21 39 -30 16 -3 -9 -11 -58 -16 -108 -18 -153 17 -364 80 -490 16 -33 30 -62 30 -64 0 -11 -42 1 -105 31 -73 34 -129 81 -140 117 -12 36 -23 19 -32 -48 l-10 -68 -32 69 c-37 78 -70 196 -67 239 4 51 -27 25 -79 -66 l-50 -89 -3 49 c-7 90 55 293 89 293 9 0 23 7 30 16 7 9 38 28 69 43 l55 26 3 61 c3 55 7 64 37 94 36 35 44 67 24 87 -7 7 -12 24 -13 38 -1 23 -13 33 -91 73 -50 26 -152 76 -228 111 -75 36 -137 67 -137 71 0 3 -23 14 -51 24 -28 10 -53 25 -56 32 -3 8 -15 14 -27 15 -20 0 -20 1 -1 8 21 9 49 -5 39 -20 -3 -5 0 -9 5 -9 6 0 11 4 11 8 0 5 15 7 33 4 29 -3 27 -1 -21 23 -28 15 -50 30 -48 34 7 11 160 1 167 -11 4 -6 12 -8 18 -4 26 16 319 -43 494 -100 40 -13 46 -18 36 -30 -22 -27 -1 -25 67 6 99 45 174 60 300 60 90 0 114 3 125 16 20 25 111 80 230 141 60 30 109 57 109 59 0 9 -20 1 -105 -44z m-1800 -62 c-3 -5 -12 -10 -18 -10 -7 0 -6 4 3 10 19 12 23 12 15 0z m123 -15 c12 -4 22 -11 22 -17 0 -5 -8 -4 -19 2 -11 5 -33 10 -50 10 -17 0 -31 4 -31 9 0 9 43 7 78 -4z m162 1 c0 -2 -9 -6 -20 -9 -11 -3 -18 -1 -14 4 5 9 34 13 34 5z m-60 -16 c8 -5 11 -10 5 -10 -5 0 -17 5 -25 10 -8 5 -10 10 -5 10 6 0 17 -5 25 -10z m77 -6 c-3 -3 -12 -4 -19 -1 -8 3 -5 6 6 6 11 1 17 -2 13 -5z m-38 -53 c9 -6 6 -8 -13 -8 -14 0 -23 3 -20 8 7 11 15 11 33 0z m-175 -16 c-4 -8 -11 -12 -16 -9 -6 4 -5 10 3 15 19 12 19 11 13 -6z m-27 -31 c-3 -3 -12 -4 -19 -1 -8 3 -5 6 6 6 11 1 17 -2 13 -5z m183 2 c0 -2 -7 -7 -16 -10 -8 -3 -12 -2 -9 4 6 10 25 14 25 6z m-44 -33 c-10 -10 -46 -11 -40 -1 3 4 15 8 26 8 12 0 18 -3 14 -7z m14 -77 c0 -2 -6 -6 -14 -9 -8 -3 -16 2 -19 14 -4 16 -2 17 14 8 10 -5 19 -11 19 -13z m623 -103 c56 -28 76 -42 74 -54 -3 -9 2 -27 9 -40 20 -36 17 -44 -21 -80 -32 -31 -35 -38 -35 -94 l0 -60 -44 -18 c-24 -10 -52 -27 -62 -38 -9 -10 -25 -19 -35 -19 -10 0 -25 -9 -33 -21 -16 -23 -36 -18 -36 10 0 23 -19 41 -36 34 -16 -6 -18 10 -6 35 13 25 0 137 -15 138 -7 1 -29 2 -48 3 -42 1 -43 10 -10 49 16 19 23 36 19 47 -9 21 4 29 89 56 37 12 67 25 67 30 0 21 21 59 32 59 7 0 48 -17 91 -37z m-368 -353 c3 -5 -3 -10 -14 -10 -12 0 -21 5 -21 10 0 6 6 10 14 10 8 0 18 -4 21 -10z m615 -3 c0 -30 62 -135 108 -185 27 -30 45 -55 38 -57 -6 -2 -45 -6 -87 -8 l-77 -5 -6 30 c-13 64 -2 238 15 238 5 0 9 -6 9 -13z m200 -267 c0 -5 -12 -10 -26 -10 -14 0 -23 4 -19 10 3 6 15 10 26 10 10 0 19 -4 19 -10z m35 -30 c3 -5 12 -7 20 -4 18 7 46 -36 55 -87 6 -30 3 -49 -13 -80 -55 -112 -197 -56 -197 77 0 26 3 33 13 28 9 -6 9 -4 1 7 -23 28 -1 54 52 60 27 3 52 7 56 7 4 1 9 -2 13 -8z m-170 -380 c27 -11 69 -24 91 -30 l42 -10 -27 -29 c-21 -23 -77 -58 -142 -89 -3 -1 -9 21 -13 50 -3 29 -9 70 -12 91 -4 20 -3 37 2 37 5 0 31 -9 59 -20z" /><path d="M2574 2039 c-3 -6 -14 -9 -24 -6 -13 3 -17 0 -13 -9 4 -11 10 -11 34 2 29 15 37 24 20 24 -6 0 -13 -5 -17 -11z" /><path d="M2580 2017 c-25 -13 -39 -37 -20 -37 6 0 8 5 4 11 -4 8 3 9 25 4 31 -7 37 -1 23 22 -6 9 -13 9 -32 0z" /><path d="M2515 1990 c3 -5 11 -10 16 -10 6 0 7 5 4 10 -3 6 -11 10 -16 10 -6 0 -7 -4 -4 -10z" /><path d="M3548 3153 c6 -2 18 -2 25 0 6 3 1 5 -13 5 -14 0 -19 -2 -12 -5z" /><path d="M2765 3140 c-3 -5 -1 -10 4 -10 6 0 11 5 11 10 0 6 -2 10 -4 10 -3 0 -8 -4 -11 -10z" /><path d="M4452 3030 c0 -19 2 -27 5 -17 2 9 2 25 0 35 -3 9 -5 1 -5 -18z" /><path d="M4634 3018 c10 -47 17 -138 11 -138 -3 0 -21 11 -38 24 -38 28 -67 39 -67 26 0 -6 5 -10 11 -10 6 0 34 -16 61 -36 27 -20 51 -34 54 -32 2 3 0 25 -5 49 -6 24 -11 63 -11 86 0 23 -5 45 -10 48 -7 4 -9 -2 -6 -17z" /><path d="M1674 3009 c-6 -11 28 -15 71 -9 l40 6 -53 5 c-30 2 -56 1 -58 -2z" /><path d="M5785 2998 c-60 -3 -121 -11 -135 -17 -24 -11 -24 -11 5 -6 69 13 312 18 319 6 5 -8 -13 -11 -63 -11 -38 0 -72 -3 -74 -7 -6 -10 149 0 159 10 24 23 -64 34 -211 25z" /><path d="M4463 2945 c0 -22 2 -30 4 -17 2 12 2 30 0 40 -3 9 -5 -1 -4 -23z" /><path d="M5203 2948 c-10 -4 -44 -14 -75 -23 -32 -8 -58 -19 -58 -24 0 -4 24 0 54 10 30 10 96 22 147 27 l94 8 -72 5 c-40 2 -81 1 -90 -3z" /><path d="M5548 2953 c7 -3 16 -2 19 1 4 3 -2 6 -13 5 -11 0 -14 -3 -6 -6z" /><path d="M5763 2953 c9 -2 25 -2 35 0 9 3 1 5 -18 5 -19 0 -27 -2 -17 -5z" /><path d="M1700 2946 c0 -3 9 -10 20 -16 11 -6 20 -8 20 -6 0 3 -9 10 -20 16 -11 6 -20 8 -20 6z" /><path d="M5413 2943 c9 -2 23 -2 30 0 6 3 -1 5 -18 5 -16 0 -22 -2 -12 -5z" /><path d="M5668 2943 c12 -2 32 -2 45 0 12 2 2 4 -23 4 -25 0 -35 -2 -22 -4z" /><path d="M5468 2933 c6 -2 18 -2 25 0 6 3 1 5 -13 5 -14 0 -19 -2 -12 -5z" /><path d="M5575 2930 c-4 -6 8 -10 29 -10 20 0 36 5 36 10 0 6 -13 10 -29 10 -17 0 -33 -4 -36 -10z" /><path d="M5660 2915 c0 -3 10 -9 23 -14 12 -5 40 -17 62 -26 22 -9 35 -12 29 -6 -12 13 -114 54 -114 46z" /><path d="M4552 2879 c6 -16 12 -28 14 -26 5 5 -13 57 -20 57 -3 0 0 -14 6 -31z" /><path d="M2787 2865 c29 -23 124 -154 136 -187 2 -7 8 -10 12 -6 23 21 -125 218 -165 218 -9 0 -2 -10 17 -25z" /><path d="M1678 2873 c6 -2 18 -2 25 0 6 3 1 5 -13 5 -14 0 -19 -2 -12 -5z" /><path d="M4472 2845 c0 -16 2 -22 5 -12 2 9 2 23 0 30 -3 6 -5 -1 -5 -18z" /><path d="M1688 2853 c7 -3 16 -2 19 1 4 3 -2 6 -13 5 -11 0 -14 -3 -6 -6z" /><path d="M5855 2814 c54 -36 81 -47 120 -51 28 -2 66 -8 85 -13 38 -11 66 -13 58 -5 -2 3 -50 14 -106 26 -78 15 -115 29 -155 55 -28 19 -56 34 -61 34 -6 0 21 -21 59 -46z" /><path d="M1665 2830 c3 -5 16 -10 28 -9 21 0 21 1 2 9 -28 12 -37 12 -30 0z" /><path d="M4575 2818 c4 -13 18 -39 31 -60 l23 -36 -29 -11 c-35 -12 -38 -33 -8 -53 20 -13 21 -17 9 -46 -21 -50 -9 -66 44 -59 l45 7 -47 -45 c-36 -35 -49 -42 -60 -34 -9 8 -13 8 -13 1 0 -6 -17 -12 -37 -14 -31 -3 -27 -4 21 -8 54 -5 60 -3 69 18 10 22 64 62 85 62 5 0 15 -14 21 -31 8 -24 7 -37 -4 -59 -8 -16 -15 -37 -15 -48 0 -14 -11 -21 -47 -28 -35 -7 -49 -14 -52 -28 -3 -18 -2 -18 13 -4 8 9 34 19 56 23 32 5 40 11 40 28 0 22 34 87 46 87 23 0 44 -24 44 -50 0 -20 5 -30 15 -30 10 0 15 -10 15 -31 0 -23 -10 -41 -36 -66 -28 -26 -34 -36 -25 -47 9 -11 7 -18 -10 -30 -24 -17 -49 -7 -49 20 0 9 -11 13 -36 11 -32 -2 -39 2 -53 30 -9 18 -20 33 -24 33 -4 0 -2 -10 4 -22 10 -18 8 -24 -11 -40 -27 -22 -39 -23 -69 -2 -22 16 -23 16 -17 -2 4 -15 -10 -28 -70 -64 -42 -25 -90 -63 -108 -85 -35 -43 -80 -124 -73 -131 2 -3 16 19 30 48 31 64 69 101 162 162 50 33 80 46 105 46 20 0 41 5 47 11 9 9 19 9 42 -1 16 -6 34 -9 39 -6 5 3 17 -3 27 -14 22 -24 43 -25 67 -3 17 15 18 15 18 -4 0 -11 -5 -45 -10 -74 -14 -69 -37 -267 -46 -387 -4 -51 -11 -95 -15 -98 -12 -7 -39 90 -46 164 -9 91 -17 84 -53 -48 -19 -67 -28 -120 -21 -120 4 0 15 36 25 80 9 44 21 80 25 80 5 0 14 -28 21 -62 7 -35 25 -83 40 -108 18 -29 30 -66 35 -105 11 -102 61 -289 81 -306 9 -7 14 -1 19 23 14 70 11 67 60 52 25 -7 45 -11 45 -9 0 2 -10 20 -22 38 -13 19 -28 43 -34 53 -17 28 -31 9 -44 -61 -7 -36 -16 -65 -21 -65 -4 0 -13 19 -19 43 -6 23 -15 56 -20 72 -23 75 -42 229 -42 330 0 146 25 340 73 575 22 105 23 130 5 130 -14 0 -22 32 -17 75 0 6 -16 10 -37 10 -35 0 -37 2 -40 35 -2 19 -7 39 -12 43 -4 5 -33 3 -64 -4 -31 -7 -59 -10 -61 -7 -3 3 1 25 9 49 14 40 14 45 -1 57 -9 6 -21 12 -26 12 -4 0 -5 5 -2 10 3 6 15 10 25 10 32 0 32 17 0 80 -31 61 -47 78 -35 38z m239 -553 c-4 -8 -10 -12 -15 -9 -11 6 -2 24 11 24 5 0 7 -7 4 -15z m99 -916 c21 -37 17 -45 -12 -29 -13 6 -21 21 -21 35 0 34 11 31 33 -6z" /><path d="M1521 2801 c-9 -6 -10 -11 -2 -15 13 -8 31 1 31 15 0 11 -11 11 -29 0z" /><path d="M4478 2775 c2 -14 6 -25 8 -25 2 0 4 11 4 25 0 14 -4 25 -9 25 -4 0 -6 -11 -3 -25z" /><path d="M5213 2790 c-18 -4 -39 -12 -45 -17 -7 -6 -41 -11 -74 -11 -62 -1 -132 -22 -146 -45 -4 -7 -8 -22 -8 -35 0 -16 -10 -27 -35 -39 -79 -37 -9 -69 131 -59 l80 6 23 -31 c40 -54 115 -73 170 -44 26 13 31 12 60 -9 51 -38 108 -50 156 -33 39 14 41 13 80 -18 85 -68 163 -88 195 -50 8 10 20 9 60 -1 28 -7 57 -11 65 -7 33 12 7 65 -50 99 -22 13 -19 8 13 -20 23 -21 42 -44 42 -52 0 -19 -53 -18 -93 2 -30 16 -32 16 -45 -5 -23 -33 -69 -27 -139 18 -34 22 -65 47 -71 56 -8 16 -11 16 -42 0 -46 -24 -111 -15 -164 22 l-41 29 -33 -19 c-30 -17 -38 -18 -74 -8 -23 7 -56 29 -75 49 l-34 36 -108 -3 c-122 -3 -150 9 -82 36 38 15 55 33 31 33 -5 0 -10 9 -10 20 0 34 55 55 147 55 70 0 83 3 87 18 6 25 109 23 178 -3 61 -23 61 -23 53 -11 -7 12 -88 38 -135 44 -19 2 -50 1 -67 -3z" /><path d="M1546 2774 c-9 -24 -7 -27 9 -10 17 17 19 26 6 26 -5 0 -12 -7 -15 -16z" /><path d="M1598 2783 c7 -3 16 -2 19 1 4 3 -2 6 -13 5 -11 0 -14 -3 -6 -6z" /><path d="M3910 2763 c0 -5 25 -6 55 -5 30 2 74 0 99 -6 36 -7 43 -7 39 4 -4 11 -29 14 -99 14 -52 0 -94 -3 -94 -7z" /><path d="M2403 2748 c-12 -15 -43 -118 -43 -144 0 -33 18 0 40 74 21 74 22 94 3 70z" /><path d="M5480 2741 c-15 -5 10 -7 62 -7 77 0 92 -3 120 -24 31 -22 32 -22 14 -2 -32 37 -128 52 -196 33z" /><path d="M3910 2731 c0 -6 17 -11 38 -11 20 0 54 -4 75 -9 20 -5 37 -5 37 -1 0 12 -19 16 -80 19 -30 2 -58 5 -62 7 -5 3 -8 0 -8 -5z" /><path d="M6145 2730 c11 -5 29 -8 40 -8 16 0 15 2 -5 8 -34 11 -60 11 -35 0z" /><path d="M4101 2714 c0 -11 3 -14 6 -6 3 7 2 16 -1 19 -3 4 -6 -2 -5 -13z" /><path d="M5124 2712 c-70 -25 -105 -49 -98 -67 4 -9 19 -15 38 -16 103 -2 498 -97 656 -158 68 -26 80 -26 80 -2 0 41 -187 177 -313 229 -85 35 -284 43 -363 14z m331 -17 c85 -29 127 -52 220 -122 86 -64 118 -94 110 -102 -2 -1 -46 11 -97 27 -184 60 -460 128 -563 139 -91 9 -99 18 -41 44 28 12 73 25 100 30 74 11 213 3 271 -16z" /><path d="M6255 2705 c68 -18 103 -17 40 1 -27 7 -59 13 -70 13 -11 -1 3 -7 30 -14z" /><path d="M6358 2683 c7 -3 16 -2 19 1 4 3 -2 6 -13 5 -11 0 -14 -3 -6 -6z" /><path d="M4060 2672 c0 -7 -9 -12 -20 -12 -11 0 -20 -4 -20 -10 0 -14 13 -12 36 4 10 8 16 18 11 22 -4 4 -7 2 -7 -4z" /><path d="M4501 2670 c0 -8 4 -24 9 -35 5 -13 9 -14 9 -5 0 8 -4 24 -9 35 -5 13 -9 14 -9 5z" /><path d="M5698 2669 c7 -9 31 -19 55 -22 33 -4 50 -14 79 -47 25 -28 35 -34 31 -20 -8 30 -65 70 -110 77 -21 3 -45 11 -53 17 -13 9 -13 9 -2 -5z" /><path d="M6398 2673 c7 -3 16 -2 19 1 4 3 -2 6 -13 5 -11 0 -14 -3 -6 -6z" /><path d="M6438 2663 c7 -3 16 -2 19 1 4 3 -2 6 -13 5 -11 0 -14 -3 -6 -6z" /><path d="M3940 2648 c-11 -4 -20 -9 -20 -11 0 -6 70 5 74 12 6 9 -28 9 -54 -1z" /><path d="M6478 2653 c6 -2 18 -2 25 0 6 3 1 5 -13 5 -14 0 -19 -2 -12 -5z" /><path d="M6535 2640 c11 -5 27 -9 35 -9 9 0 8 4 -5 9 -11 5 -27 9 -35 9 -9 0 -8 -4 5 -9z" /><path d="M6591 2626 c2 -2 57 -22 121 -44 65 -23 136 -51 158 -62 48 -25 53 -20 8 8 -45 28 -309 118 -287 98z" /><path d="M3927 2608 c5 -10 149 -9 182 1 13 3 -23 6 -81 6 -58 0 -104 -3 -101 -7z" /><path d="M4521 2595 c1 -19 18 -51 18 -35 0 8 -4 22 -9 30 -5 8 -9 11 -9 5z" /><path d="M5861 2534 c0 -11 3 -14 6 -6 3 7 2 16 -1 19 -3 4 -6 -2 -5 -13z" /><path d="M3591 2520 c0 -8 4 -24 9 -35 5 -13 9 -14 9 -5 0 8 -4 24 -9 35 -5 13 -9 14 -9 5z" /><path d="M3960 2505 c-7 -8 -8 -15 -2 -15 5 0 15 7 22 15 7 8 8 15 2 15 -5 0 -15 -7 -22 -15z" /><path d="M4049 2429 l-64 -62 66 56 c37 31 69 53 73 50 3 -3 6 -1 6 5 0 22 -16 12 -81 -49z" /><path d="M6627 2476 c-66 -6 -115 -15 -111 -19 5 -5 -5 -21 -21 -35 -17 -15 -24 -23 -15 -18 8 6 26 20 40 32 23 21 42 24 193 34 92 6 172 8 177 5 6 -3 10 -1 10 4 0 14 -111 12 -273 -3z" /><path d="M5122 2463 c1 -5 -2 -50 -6 -101 -7 -86 -9 -93 -27 -88 -51 16 -60 14 -21 -4 39 -19 42 -24 44 -63 l1 -42 4 38 c4 37 5 38 36 33 31 -6 31 -6 7 6 -29 14 -39 27 -35 42 11 35 15 186 6 186 -6 0 -10 -3 -9 -7z" /><path d="M6370 2450 c-10 -6 3 -7 40 -3 30 3 57 7 59 9 10 9 -85 3 -99 -6z" /><path d="M6854 2438 l-19 -23 23 19 c21 18 27 26 19 26 -2 0 -12 -10 -23 -22z" /><path d="M6270 2443 c-136 -22 -250 -47 -250 -55 0 -5 8 -7 18 -4 40 12 123 30 217 46 55 10 87 18 70 17 -16 0 -41 -2 -55 -4z" /><path d="M1556 2391 c-23 -43 -20 -52 5 -12 11 18 18 35 15 38 -2 3 -12 -9 -20 -26z" /><path d="M3620 2412 c1 -10 41 -38 110 -77 91 -51 72 -27 -25 32 -47 28 -85 49 -85 45z" /><path d="M5266 2348 c22 -126 91 -294 112 -274 3 3 -2 14 -10 23 -32 38 -98 240 -98 300 0 13 -4 23 -8 23 -5 0 -3 -33 4 -72z" /><path d="M5405 2383 c6 -48 63 -189 99 -244 l25 -37 -22 -16 c-21 -14 -18 -15 43 -9 l65 6 -43 -48 c-50 -56 -58 -81 -43 -128 18 -53 44 -74 102 -82 42 -6 56 -4 77 12 40 30 45 45 38 107 -7 49 -10 56 -26 51 -29 -9 -34 14 -5 25 18 7 33 7 47 -1 17 -9 19 -17 13 -57 -3 -26 -8 -55 -11 -64 -3 -10 -1 -18 4 -18 14 0 22 71 24 205 1 144 -11 275 -24 275 -6 0 -8 -10 -4 -22 3 -13 9 -76 12 -140 6 -107 5 -118 -11 -124 -10 -4 -32 1 -53 12 -25 13 -56 19 -106 19 l-71 0 -43 85 c-23 47 -54 119 -67 160 -20 59 -24 66 -20 33z m275 -303 c0 -13 -11 -13 -30 0 -12 8 -11 10 8 10 12 0 22 -4 22 -10z m-15 -76 c9 3 18 0 21 -9 4 -8 15 -15 25 -15 14 0 19 -8 21 -27 3 -57 -3 -79 -28 -101 -21 -18 -33 -21 -62 -16 -63 10 -70 14 -87 50 -21 45 -14 90 21 127 l26 28 24 -22 c13 -12 30 -19 39 -15z" /><path d="M4075 2390 c-3 -6 1 -7 9 -4 18 7 21 14 7 14 -6 0 -13 -4 -16 -10z" /><path d="M6726 2344 c-73 -53 -105 -85 -48 -48 47 30 132 94 132 99 0 9 -8 4 -84 -51z" /><path d="M4450 2382 c0 -15 25 -31 59 -38 30 -6 54 -24 32 -24 -6 0 -16 -10 -22 -22 -11 -20 -7 -18 22 7 38 33 38 34 -33 49 -15 3 -34 13 -42 22 -9 8 -16 11 -16 6z" /><path d="M1289 2364 c-27 -33 63 -219 121 -249 16 -8 47 -15 70 -15 22 0 40 -1 40 -3 0 -12 -72 -171 -87 -194 -34 -48 -36 -59 -4 -23 17 18 44 68 61 110 17 41 37 87 45 102 15 29 3 50 -18 29 -23 -23 -84 -13 -121 19 -38 34 -100 167 -94 203 3 19 6 17 20 -14 21 -48 65 -88 107 -95 30 -6 38 -3 58 22 33 42 28 52 -7 14 -23 -25 -34 -30 -52 -24 -44 14 -69 37 -90 85 -22 53 -29 57 -49 33z" /><path d="M6419 2359 c-23 -19 -23 -20 -2 -10 12 6 25 16 28 21 10 16 -1 12 -26 -11z" /><path d="M5976 2260 c3 -63 7 -128 9 -145 2 -16 5 -140 6 -275 0 -156 6 -278 15 -335 15 -96 52 -231 60 -222 3 3 -2 29 -11 59 -31 103 -46 225 -51 423 -4 188 -4 199 12 178 9 -13 22 -23 29 -23 7 0 18 -21 25 -47 6 -27 16 -59 20 -73 l8 -25 1 25 1 25 26 -30 c24 -29 24 -27 -5 30 -44 86 -40 106 12 65 30 -24 45 -25 71 -5 11 8 37 15 57 15 25 0 41 6 47 16 8 15 12 15 43 -1 19 -10 62 -37 97 -61 35 -24 68 -44 74 -44 13 0 -141 103 -194 131 -21 11 -38 25 -38 32 0 6 -12 23 -25 36 -33 31 -32 9 1 -24 36 -36 30 -69 -15 -73 -19 -2 -44 -10 -56 -18 -21 -14 -26 -13 -61 11 -21 14 -40 28 -42 30 -2 2 2 13 8 25 9 17 17 20 36 16 19 -5 32 2 64 34 22 23 45 38 50 35 6 -3 10 -1 10 4 0 6 23 22 50 36 28 14 50 28 50 30 0 5 -61 -22 -103 -46 -10 -5 -27 -7 -38 -4 -14 5 -19 2 -19 -12 0 -37 -29 -63 -69 -63 -30 0 -42 -6 -55 -25 -29 -44 -56 -27 -56 35 0 16 -4 32 -10 35 -12 7 -14 125 -2 125 4 0 13 -5 19 -11 7 -7 20 -4 44 9 19 11 44 23 57 27 19 5 22 3 22 -21 0 -15 8 -33 18 -41 16 -14 16 -14 0 -9 -10 3 -20 1 -23 -4 -4 -6 7 -10 24 -10 18 0 31 -5 31 -12 0 -23 28 16 35 47 5 28 5 29 -5 5 -6 -13 -13 -26 -16 -29 -8 -9 -54 43 -54 61 0 28 -24 32 -69 9 -50 -26 -56 -26 -81 -1 -16 16 -20 34 -21 88 0 37 -4 76 -9 87 -6 12 -7 -24 -4 -95z" /><path d="M1516 2323 c-6 -14 -5 -15 5 -6 7 7 10 15 7 18 -3 3 -9 -2 -12 -12z" /><path d="M5671 2334 c-2 -37 84 -263 95 -251 3 3 0 16 -7 29 -7 12 -30 70 -50 128 -21 58 -38 100 -38 94z" /><path d="M4927 2317 c-3 -7 -11 -64 -18 -126 -11 -95 -16 -115 -31 -119 -10 -2 -15 -8 -12 -13 3 -5 10 -7 15 -4 10 7 11 0 9 -70 -2 -86 36 -395 49 -395 4 0 2 39 -4 88 -7 48 -11 88 -10 90 1 1 25 -20 54 -48 28 -27 55 -50 59 -50 4 0 30 -11 57 -25 28 -13 55 -25 62 -25 19 0 27 -21 12 -32 -10 -6 -6 -7 11 -2 29 9 99 7 114 -4 6 -4 31 -5 56 -1 l45 6 -45 1 c-57 2 -208 45 -272 78 -59 30 -120 89 -148 143 -16 33 -20 59 -20 150 l0 109 43 21 c59 28 73 27 48 -4 -27 -35 -34 -76 -22 -122 16 -60 51 -87 113 -88 48 0 54 3 75 35 19 28 23 45 21 90 -3 53 -4 55 -30 52 -33 -3 -46 15 -25 36 14 13 21 14 43 3 36 -16 41 -7 9 16 -15 10 -36 26 -47 36 -19 18 -20 18 -25 -2 -6 -24 -33 -29 -33 -6 0 9 -9 15 -23 15 -12 0 -49 -7 -80 -15 -32 -8 -60 -15 -62 -15 -2 0 -1 12 1 28 10 53 23 177 20 180 -2 1 -6 -3 -9 -11z m139 -242 c4 -8 14 -15 24 -15 11 0 22 -4 25 -10 3 -5 17 -10 30 -10 39 0 44 -71 7 -127 -12 -19 -24 -23 -62 -23 -42 0 -52 4 -75 32 -23 27 -26 39 -22 75 8 70 56 122 73 78z" /><path d="M6345 2311 c-3 -5 -1 -12 5 -16 5 -3 10 1 10 9 0 18 -6 21 -15 7z" /><path d="M3778 2255 c-2 -19 0 -35 4 -35 4 0 8 9 8 19 0 11 3 26 6 35 3 9 2 16 -4 16 -5 0 -12 -16 -14 -35z" /><path d="M4037 2283 c-4 -3 -7 -11 -7 -17 0 -6 5 -5 12 2 6 6 9 14 7 17 -3 3 -9 2 -12 -2z" /><path d="M6375 2280 c3 -5 11 -10 16 -10 6 0 7 5 4 10 -3 6 -11 10 -16 10 -6 0 -7 -4 -4 -10z" /><path d="M6446 2235 c3 -7 -3 -16 -13 -18 -12 -4 -10 -5 6 -4 28 2 39 22 17 30 -10 4 -13 1 -10 -8z" /><path d="M5537 2230 c-20 -4 -41 -10 -45 -15 -9 -10 98 2 130 14 21 9 20 10 -12 9 -19 0 -52 -4 -73 -8z" /><path d="M6540 2220 c-9 -6 -10 -10 -3 -10 6 0 15 5 18 10 8 12 4 12 -15 0z" /><path d="M3757 2159 c-9 -29 -15 -55 -13 -57 6 -6 38 86 34 98 -2 7 -11 -12 -21 -41z" /><path d="M6325 2200 l-40 -7 35 0 c19 -1 49 3 65 7 27 7 27 8 5 7 -14 0 -43 -3 -65 -7z" /><path d="M4670 2184 c0 -8 -35 -52 -77 -98 -43 -45 -113 -121 -156 -169 -43 -48 -83 -84 -89 -81 -5 4 -16 20 -24 38 -7 17 -13 25 -14 18 0 -7 5 -22 11 -34 6 -11 8 -23 4 -26 -3 -3 -43 -9 -88 -13 l-82 -7 100 1 c75 1 105 5 119 16 13 12 41 16 110 16 l91 0 -1 -35 c0 -19 -6 -73 -12 -120 -17 -121 -20 -189 -12 -251 4 -30 4 -58 0 -62 -4 -5 -22 -1 -40 8 -18 9 -54 20 -79 24 l-45 6 -11 75 c-13 92 -19 104 -55 97 -15 -3 -32 -1 -39 6 -8 8 -11 8 -11 0 0 -7 5 -15 10 -18 7 -4 6 -14 -1 -28 -10 -19 -8 -18 15 5 48 47 64 26 73 -94 3 -44 12 -86 20 -96 13 -15 13 -15 3 6 -16 32 8 38 73 17 99 -32 118 -74 97 -222 -16 -110 -30 -143 -77 -182 -42 -35 -23 -45 20 -11 58 46 97 254 64 347 l-14 42 31 -6 c17 -3 38 -10 47 -14 20 -10 92 -146 110 -206 7 -24 16 -43 20 -43 5 0 2 18 -6 40 -15 44 -6 51 25 20 27 -27 26 -68 -2 -80 -23 -10 -23 -10 2 -7 48 4 39 86 -13 117 -20 12 -49 49 -77 97 -32 56 -52 79 -70 83 -24 6 -25 9 -25 80 0 41 3 104 7 140 5 49 4 59 -4 40 -5 -14 -12 -71 -15 -128 -7 -130 -23 -114 -23 23 0 97 17 213 60 419 12 54 19 103 17 109 -2 7 -9 -15 -15 -48 -7 -33 -17 -76 -22 -96 l-10 -36 -85 1 c-47 1 -85 4 -85 7 0 9 62 81 145 167 70 74 70 74 75 45 5 -25 7 -22 19 27 8 30 18 63 23 73 5 11 5 17 -2 17 -5 0 -10 -7 -10 -16z" /><path d="M1545 2160 c-3 -5 -1 -10 4 -10 6 0 11 5 11 10 0 6 -2 10 -4 10 -3 0 -8 -4 -11 -10z" /><path d="M6430 2160 c-9 -6 -10 -10 -3 -10 6 0 15 5 18 10 8 12 4 12 -15 0z" /><path d="M4010 2133 c0 -17 32 -25 44 -12 8 9 7 10 -5 6 -9 -3 -22 0 -28 6 -8 8 -11 8 -11 0z" /><path d="M3580 2115 c0 -8 7 -15 15 -15 8 0 15 7 15 15 0 8 -7 15 -15 15 -8 0 -15 -7 -15 -15z" /><path d="M4000 2055 c0 -20 5 -25 25 -25 29 0 36 34 9 44 -27 10 -34 7 -34 -19z m40 -6 c0 -5 -7 -9 -15 -9 -15 0 -20 12 -9 23 8 8 24 -1 24 -14z" /><path d="M2110 2055 c0 -8 5 -15 10 -15 6 0 10 7 10 15 0 8 -4 15 -10 15 -5 0 -10 -7 -10 -15z" /><path d="M3580 2055 c0 -8 5 -15 10 -15 6 0 10 7 10 15 0 8 -4 15 -10 15 -5 0 -10 -7 -10 -15z" /><path d="M6801 2028 c1 -18 2 -19 6 -5 2 9 9 14 15 11 7 -4 8 -2 4 4 -12 20 -26 13 -25 -10z" /><path d="M6845 2010 c3 -5 13 -10 21 -10 8 0 14 5 14 10 0 6 -9 10 -21 10 -11 0 -17 -4 -14 -10z" /><path d="M6787 1993 c-4 -3 -7 -13 -7 -22 1 -13 3 -13 11 2 11 19 8 33 -4 20z" /><path d="M2130 1980 c0 -5 5 -10 10 -10 6 0 10 5 10 10 0 6 -4 10 -10 10 -5 0 -10 -4 -10 -10z" /><path d="M4249 1953 c0 -5 -3 -20 -5 -35 -3 -20 0 -28 10 -28 8 0 18 5 21 10 3 6 15 10 26 10 10 0 19 7 19 15 0 8 -4 15 -9 15 -5 0 -14 -7 -21 -15 -20 -24 -38 -18 -32 10 2 14 2 25 -2 25 -3 0 -6 -3 -7 -7z" /><path d="M6890 1943 c0 -24 14 -31 25 -13 14 22 32 7 70 -60 22 -38 43 -70 47 -70 4 0 10 -9 13 -21 4 -11 9 -18 12 -16 5 5 -15 48 -26 57 -4 3 -20 28 -35 55 -42 74 -56 87 -73 73 -11 -9 -17 -9 -24 3 -7 11 -9 9 -9 -8z" /><path d="M6743 1898 c-33 -50 -80 -84 -135 -99 -28 -7 -43 -7 -53 1 -9 8 -14 7 -18 -3 -3 -7 -30 -22 -61 -32 -31 -11 -56 -22 -56 -25 0 -3 9 -18 20 -35 28 -43 25 -48 -22 -40 -54 8 -93 22 -141 52 l-38 24 7 -36 c6 -31 4 -35 -12 -29 -16 5 -16 4 -4 -5 25 -18 43 -13 37 9 -3 13 0 20 8 20 27 0 25 -18 -6 -51 -16 -18 -35 -42 -41 -53 -6 -12 10 1 35 28 40 42 50 48 74 42 15 -3 52 -9 81 -12 47 -6 52 -5 52 13 0 10 -7 28 -15 39 -8 10 -15 22 -15 25 0 8 101 44 167 59 66 15 121 55 151 108 30 54 21 54 -15 0z" /><path d="M5756 1858 c-3 -7 -9 -28 -15 -47 -6 -19 -9 -36 -7 -38 3 -4 20 35 31 75 6 23 -3 32 -9 10z" /><path d="M5280 1795 c-7 -9 -9 -19 -5 -23 4 -4 10 -1 12 6 7 18 48 15 66 -6 10 -10 17 -35 17 -55 0 -20 5 -37 10 -37 6 0 8 16 4 43 -10 66 -73 110 -104 72z" /><path d="M4187 1775 c10 -13 22 -25 27 -25 5 0 -1 11 -14 25 -30 32 -36 32 -13 0z" /><path d="M5770 1764 c-30 -31 -35 -33 -41 -17 -6 16 -8 15 -17 -7 -13 -34 2 -38 40 -10 19 14 33 19 37 12 4 -6 11 5 17 24 14 42 8 42 -36 -2z" /><path d="M5286 1740 c7 -28 42 -70 58 -70 5 0 -2 12 -16 28 -14 15 -31 36 -37 47 -11 18 -11 18 -5 -5z" /><path d="M6172 1730 c12 -16 26 -30 32 -30 5 0 -3 14 -19 30 -16 17 -30 30 -32 30 -2 0 6 -13 19 -30z" /><path d="M7071 1730 c14 -31 19 -36 19 -24 0 6 -7 19 -16 30 -14 18 -14 18 -3 -6z" /><path d="M4255 1695 c0 -26 9 -32 21 -14 3 6 0 17 -7 25 -12 11 -14 9 -14 -11z" /><path d="M2918 1703 c6 -2 18 -2 25 0 6 3 1 5 -13 5 -14 0 -19 -2 -12 -5z" /><path d="M5755 1690 c-18 -20 -18 -21 0 -14 16 7 17 4 11 -32 -3 -21 -9 -59 -12 -84 -6 -45 -6 -45 -48 -47 -49 -1 -83 22 -64 44 9 11 9 17 -3 24 -8 5 -20 9 -26 9 -7 0 -13 5 -13 10 0 6 6 10 13 10 19 0 121 50 114 56 -3 3 -29 -7 -58 -21 -28 -15 -79 -33 -113 -40 -34 -7 -55 -14 -48 -14 26 -2 10 -23 -30 -41 -52 -24 -93 -25 -133 -4 -28 14 -29 14 -14 -1 40 -41 135 -24 213 37 20 16 30 19 33 11 3 -7 15 -13 27 -13 36 0 37 -10 6 -41 -23 -24 -37 -29 -77 -30 -26 0 -42 -3 -34 -6 10 -4 5 -10 -15 -18 -23 -9 -36 -9 -60 1 -23 10 -41 10 -74 2 -40 -10 -45 -9 -61 11 -10 12 -39 33 -65 46 -42 21 -50 22 -74 10 -39 -20 -82 8 -99 66 -8 24 -16 38 -18 32 -3 -7 1 -29 7 -49 14 -41 13 -43 -45 -65 l-45 -17 -1 31 c-1 18 -3 25 -5 17 -3 -8 0 -40 5 -70 7 -44 9 -48 10 -20 1 34 3 36 59 54 68 21 86 15 128 -45 l25 -37 -30 -54 c-39 -68 -43 -146 -10 -179 19 -19 22 -19 44 -5 14 9 30 16 37 16 7 0 18 10 23 22 17 37 36 35 31 -4 -3 -18 -10 -71 -16 -118 -19 -143 -14 -133 -68 -128 -47 5 -48 4 -64 -34 -20 -46 -15 -50 8 -7 15 29 18 31 57 25 23 -4 42 -8 43 -9 1 -1 4 -18 8 -38 8 -46 -2 -51 -81 -35 l-60 13 -25 -41 c-14 -23 -49 -86 -79 -141 -42 -78 -71 -117 -132 -177 -63 -62 -85 -78 -109 -78 -36 0 -35 7 29 134 47 94 65 136 58 136 -6 0 -90 -160 -111 -212 l-19 -48 -105 -1 c-58 0 -184 0 -280 1 -96 0 -180 -3 -187 -7 -6 -5 116 -9 270 -11 672 -6 1105 -7 1089 0 -9 4 -147 7 -307 7 l-290 0 3 23 c3 29 165 354 196 394 5 6 132 -19 134 -26 2 -5 11 -19 21 -31 15 -18 21 -20 39 -10 12 6 22 19 22 28 0 13 11 15 66 11 36 -2 68 -8 72 -14 8 -11 62 -16 62 -6 -1 17 -18 34 -24 23 -4 -6 -14 -11 -21 -11 -11 0 -13 8 -9 33 6 32 6 32 -10 10 -13 -17 -27 -23 -54 -23 -55 0 -64 9 -50 52 11 36 12 37 57 34 l47 -2 -4 33 c-2 18 -9 36 -14 39 -7 4 -8 -5 -3 -25 6 -30 5 -31 -28 -31 -18 0 -36 2 -39 5 -5 5 10 140 18 165 9 24 34 -18 34 -55 0 -45 13 -52 26 -13 9 29 15 33 45 33 26 0 36 -6 46 -25 7 -14 13 -18 13 -10 0 22 -29 60 -46 60 -11 0 -12 5 -6 18 14 26 25 112 14 112 -5 0 -12 -22 -16 -50 -10 -72 -38 -92 -83 -58 -13 11 -43 132 -43 177 0 17 -5 31 -10 31 -9 0 -48 -32 -94 -76 -20 -19 -99 -74 -106 -74 -4 0 -13 13 -20 30 -19 46 -5 111 37 164 38 50 61 56 121 35 26 -9 35 -8 48 5 21 22 45 20 51 -4 3 -12 18 -23 37 -28 25 -7 52 -37 62 -69 0 -2 21 16 46 40 25 23 77 59 116 80 l70 38 16 -22 c19 -27 20 -23 35 81 6 41 13 90 17 108 8 37 -4 41 -31 12z m-536 -175 c17 -19 30 -35 29 -36 -2 0 -12 -2 -23 -4 -11 -1 -27 -5 -36 -9 -11 -5 -21 3 -35 29 -17 31 -17 37 -4 45 25 16 35 12 69 -25z m425 -9 c8 -14 8 -20 -3 -23 -7 -3 -42 -27 -78 -54 -67 -51 -83 -58 -83 -36 0 15 -45 57 -60 57 -6 0 -10 5 -10 10 0 14 27 13 32 -1 2 -7 25 -1 60 15 31 14 63 26 71 26 8 0 20 7 27 15 15 19 30 15 44 -9z m-374 -7 c0 -4 -7 -6 -15 -3 -8 4 -15 10 -15 15 0 4 7 6 15 3 8 -4 15 -10 15 -15z m80 -173 c0 -17 -14 -29 -23 -20 -8 8 3 34 14 34 5 0 9 -6 9 -14z m-37 -56 c-6 -31 4 -39 24 -19 38 38 13 -270 -27 -338 -11 -19 -20 -43 -20 -54 0 -34 -35 -19 -37 16 -5 84 -3 168 7 240 6 44 14 103 17 130 6 48 18 69 35 59 4 -3 5 -18 1 -34z m127 -150 c0 -5 -4 -10 -10 -10 -5 0 -10 5 -10 10 0 6 5 10 10 10 6 0 10 -4 10 -10z m-550 -596 c-10 -45 -12 -46 -50 -42 l-32 3 38 38 c20 20 41 37 45 37 4 0 3 -16 -1 -36z" /><path d="M5936 1643 c-3 -25 -4 -49 -1 -51 3 -3 5 2 5 11 0 10 6 17 13 17 9 0 12 11 9 35 -6 49 -18 44 -26 -12z" /><path d="M6120 1660 c0 -5 5 -10 11 -10 5 0 7 5 4 10 -3 6 -8 10 -11 10 -2 0 -4 -4 -4 -10z" /><path d="M7105 1655 c22 -65 27 -87 34 -155 8 -72 8 -73 9 -20 2 57 -17 144 -37 176 -12 18 -12 18 -6 -1z" /><path d="M4262 1630 c0 -14 2 -19 5 -12 2 6 2 18 0 25 -3 6 -5 1 -5 -13z" /><path d="M2918 1633 c-14 -2 -32 -10 -38 -18 -15 -19 -9 -67 10 -73 12 -4 13 -2 3 9 -22 22 -14 32 20 25 23 -4 28 -3 17 4 -8 5 -23 10 -33 10 -25 0 -17 22 9 26 27 4 73 23 54 22 -8 -1 -27 -3 -42 -5z" /><path d="M6136 1600 c4 -25 10 -52 15 -60 10 -17 1 39 -12 80 -6 16 -7 10 -3 -20z" /><path d="M5961 1570 c-2 -72 70 -353 86 -336 3 2 -4 33 -15 68 -21 65 -45 166 -61 253 -8 45 -9 46 -10 15z" /><path d="M2605 1569 c-4 -6 -13 -8 -21 -5 -21 8 -19 -87 2 -108 22 -22 31 -20 11 2 -25 27 -21 62 10 94 15 15 22 28 15 28 -6 0 -14 -5 -17 -11z" /><path d="M6205 1559 c-4 -6 -5 -12 -2 -15 2 -3 7 2 10 11 7 17 1 20 -8 4z" /><path d="M2978 1507 c7 -8 22 -12 35 -10 13 3 40 -2 60 -11 20 -8 37 -12 37 -7 0 9 -52 27 -104 36 -34 6 -38 4 -28 -8z" /><path d="M6150 1516 c0 -3 15 -31 34 -63 18 -32 55 -98 81 -146 26 -49 49 -86 51 -84 3 2 -16 42 -41 88 -24 46 -59 112 -77 147 -18 34 -36 62 -40 62 -5 0 -8 -2 -8 -4z" /><path d="M5911 1494 c0 -11 3 -14 6 -6 3 7 2 16 -1 19 -3 4 -6 -2 -5 -13z" /><path d="M3000 1481 c0 -6 5 -13 12 -17 7 -5 5 -11 -7 -21 -18 -12 -18 -13 2 -13 11 0 26 -6 32 -14 10 -12 8 -15 -11 -19 -22 -4 -22 -4 2 -6 17 -1 32 -11 43 -31 l18 -30 -35 0 -35 0 -3 -57 -3 -58 -45 -6 c-25 -3 -73 -9 -108 -12 l-62 -7 5 28 5 27 -12 -27 c-12 -29 -23 -33 -120 -41 -26 -3 -45 -1 -43 4 10 16 -261 35 -285 20 -10 -7 -18 -4 -28 10 -10 15 -21 19 -37 15 -17 -4 -27 1 -40 20 -16 25 -16 28 2 61 10 19 40 61 66 94 27 33 47 62 45 65 -5 5 -50 -50 -97 -118 -18 -28 -40 -48 -50 -48 -31 0 -46 -26 -32 -56 6 -15 9 -36 5 -48 -6 -18 -5 -19 8 -9 8 7 18 10 21 6 15 -15 5 -22 -31 -21 -44 0 -94 -8 -133 -23 -25 -10 -49 -46 -49 -72 1 -7 7 3 15 21 18 41 46 51 124 47 67 -3 89 -12 53 -22 -26 -6 -29 -20 -4 -26 15 -4 15 -5 -2 -6 -13 -1 -17 -6 -13 -22 3 -13 1 -19 -6 -16 -7 2 -11 14 -9 26 2 19 -2 21 -20 16 -19 -6 -21 -5 -10 6 6 7 12 17 12 21 0 16 -37 -11 -64 -46 l-27 -36 21 -22 c20 -21 22 -22 34 -6 11 14 12 10 12 -32 -1 -26 -4 -46 -8 -43 -5 2 -8 -3 -8 -12 0 -16 -58 -57 -74 -52 -5 2 -11 21 -13 43 -2 21 -6 50 -7 64 -2 14 -5 36 -6 50 -2 25 -2 24 -9 -3 -5 -23 -16 -32 -61 -49 -60 -22 -71 -23 -177 -13 -39 4 -84 4 -100 0 -27 -6 -27 -7 -9 -21 15 -10 16 -14 5 -18 -8 -2 -32 -10 -54 -17 -82 -25 -182 -108 -222 -184 -17 -31 -42 -135 -33 -135 4 0 7 -18 7 -40 0 -21 5 -52 12 -67 l11 -28 163 -3 c546 -9 712 -9 797 -1 87 9 573 12 862 6 65 -1 118 1 118 6 0 4 -13 7 -30 7 -27 0 -30 3 -30 30 0 21 -5 30 -16 30 -8 0 -12 5 -9 10 4 6 11 8 16 5 5 -4 9 1 9 10 0 12 -6 15 -22 11 -13 -3 -17 -3 -10 0 6 3 10 10 6 15 -3 5 2 9 11 9 12 0 14 8 9 40 -5 29 -3 40 6 40 17 0 11 33 -39 225 -38 145 -41 164 -30 198 7 20 16 37 20 37 15 0 21 -22 10 -33 -15 -15 -14 -37 3 -37 7 0 19 7 26 15 7 8 20 15 29 15 25 0 42 32 25 48 -12 10 -13 9 -11 -10 1 -18 -4 -24 -24 -26 -18 -2 -29 3 -33 15 -5 13 8 31 54 73 44 41 60 62 60 81 0 23 -6 27 -42 35 -38 8 -43 13 -43 36 -1 15 -4 30 -8 34 -4 4 -7 2 -7 -5 0 -8 -11 -5 -29 9 -18 12 -32 16 -36 10 -3 -5 -10 -10 -15 -10 -16 0 -50 43 -50 62 0 10 -4 18 -10 18 -5 0 -7 -13 -3 -30 9 -47 -21 -38 -53 15 -24 42 -44 58 -44 36z m225 -130 c6 -10 -14 -61 -25 -61 -3 0 -14 6 -24 13 -16 12 -17 16 -5 35 14 22 43 29 54 13z m-130 -101 c0 -32 -3 -35 -30 -38 -28 -3 -30 0 -29 28 1 16 2 35 3 41 0 6 13 9 29 7 24 -3 27 -7 27 -38z m76 30 c17 -10 27 -40 13 -40 -16 0 -44 23 -44 35 0 18 5 18 31 5z m121 -2 c-8 -8 -17 -8 -34 0 -22 10 -21 11 12 11 26 1 31 -2 22 -11z m-1022 -95 c9 -8 11 -12 3 -13 -15 0 -83 82 -83 100 0 8 15 -6 32 -31 18 -24 39 -49 48 -56z m954 32 c-30 -23 -45 -19 -31 8 27 50 30 52 40 29 8 -18 6 -25 -9 -37z m84 22 c-45 -46 -362 -226 -375 -213 -6 6 43 35 71 42 14 3 26 10 26 16 0 5 5 6 10 3 6 -3 10 -2 10 4 0 5 14 12 30 16 17 4 30 10 30 15 0 4 15 15 33 23 17 9 64 38 102 65 66 47 94 60 63 29z m-148 -12 c11 -13 8 -15 -14 -15 -25 0 -33 10 -19 23 10 11 19 8 33 -8z m-67 -57 c-12 -49 -63 -65 -63 -20 0 36 6 42 41 42 23 0 26 -3 22 -22z m51 8 c-21 -15 -30 -14 -19 3 3 6 14 11 23 11 13 0 13 -2 -4 -14z m-684 -6 c0 -12 -24 -12 -60 0 -21 7 -19 8 18 9 23 1 42 -3 42 -9z m95 1 c6 -1 2 -6 -7 -12 -12 -6 -27 -5 -50 4 l-33 14 40 -3 c22 -1 45 -3 50 -3z m455 -31 c0 -40 -1 -42 -54 -66 -53 -24 -55 -24 -123 -10 -37 9 -97 20 -133 26 -36 6 -82 16 -103 21 -32 9 -36 12 -23 24 15 16 200 38 349 43 l87 3 0 -41z m-741 -22 c-14 -25 -11 -31 11 -25 24 6 27 -8 3 -18 -10 -3 -19 -1 -21 4 -2 6 -11 11 -20 11 -12 0 -13 3 -4 12 17 17 15 28 -5 21 -10 -4 -14 -2 -10 4 4 6 18 10 31 9 19 -1 22 -4 15 -18z m157 -19 c3 -5 -1 -9 -10 -9 -8 0 -23 -3 -33 -7 -10 -3 -15 -3 -11 2 4 4 3 13 -2 20 -7 8 -2 10 20 7 17 -2 33 -8 36 -13z m135 -29 c38 -12 69 -24 69 -29 0 -11 -131 -34 -140 -24 -14 15 -20 73 -8 73 6 0 42 -9 79 -20z m-436 -10 c-3 -5 -12 -10 -18 -10 -7 0 -6 4 3 10 19 12 23 12 15 0z m125 0 c0 -5 15 -7 33 -4 29 4 30 4 8 -6 -13 -6 -31 -8 -40 -5 -9 2 -23 0 -31 -5 -8 -5 -11 -10 -6 -10 11 0 -25 -29 -36 -30 -10 0 55 69 65 70 4 0 7 -4 7 -10z m211 -30 c3 -19 16 -80 28 -135 13 -55 25 -117 28 -137 l5 -36 -73 -22 c-41 -11 -87 -25 -103 -31 -33 -10 -33 -10 -38 14 -2 15 12 23 77 44 44 14 81 26 83 27 4 4 -43 234 -49 240 -2 3 -37 -3 -76 -13 -40 -10 -74 -16 -77 -13 -4 3 -6 15 -6 27 0 27 67 53 77 29 4 -10 10 -11 24 -4 10 6 16 17 13 24 -6 16 17 25 56 23 20 -2 26 -9 31 -37z m252 33 c-7 -2 -19 -2 -25 0 -7 3 -2 5 12 5 14 0 19 -2 13 -5z m419 -18 c-2 -10 1 -14 7 -10 6 3 11 1 11 -4 0 -16 -14 -13 -39 8 -16 14 -18 21 -9 24 21 9 33 1 30 -18z m-315 -1 c-3 -3 -12 -4 -19 -1 -8 3 -5 6 6 6 11 1 17 -2 13 -5z m-54 -21 c-18 -7 -16 -33 2 -33 8 0 15 7 15 15 0 25 19 17 26 -10 5 -19 -6 -50 -41 -120 -52 -103 -64 -118 -88 -109 -13 5 -15 17 -11 67 3 34 5 86 4 115 -1 67 11 82 64 81 22 0 35 -3 29 -6z m258 -50 c0 -32 2 -67 4 -78 6 -34 24 -226 31 -327 4 -62 3 -98 -3 -98 -13 0 -33 144 -35 250 -1 83 -16 163 -17 95 -1 -19 -9 -35 -22 -43 -26 -17 -39 -6 -42 36 -1 18 -7 32 -13 32 -12 0 -64 69 -64 85 0 5 -6 16 -14 24 -8 9 -17 28 -21 43 l-7 26 41 -10 c23 -6 41 -14 41 -19 0 -11 27 -12 32 -1 3 7 67 40 81 41 4 1 7 -25 8 -56z m-365 -65 c-3 -62 -8 -174 -12 -248 -6 -156 -11 -180 -31 -180 -13 0 -14 11 -9 63 3 34 10 141 16 237 12 202 17 240 31 240 6 0 8 -40 5 -112z m-504 84 c-7 -2 -12 -8 -12 -14 0 -6 7 -8 15 -4 22 8 18 -2 -5 -14 -16 -9 -22 -8 -26 4 -7 17 17 47 31 38 5 -3 4 -7 -3 -10z m100 -58 c4 -32 14 -105 24 -162 12 -74 14 -106 6 -114 -17 -17 -39 -3 -45 29 -12 59 -29 283 -23 298 12 33 31 7 38 -51z m283 43 c-14 -11 -15 -16 -5 -22 9 -5 11 -4 6 3 -10 17 9 15 23 -2 9 -11 8 -14 -5 -12 -11 0 -18 -7 -19 -21 -1 -19 1 -20 18 -12 29 16 28 7 -3 -22 l-29 -25 -10 42 c-15 59 -14 72 7 77 32 9 36 7 17 -6z m631 1 c-1 -7 -7 -22 -13 -32 -10 -18 -11 -18 -18 4 -5 15 -2 25 6 31 20 12 28 11 25 -3z m-1178 -25 c6 -16 11 -41 11 -58 1 -16 1 -43 1 -60 0 -20 -7 -36 -22 -47 -59 -42 -69 -56 -67 -90 1 -19 -7 -48 -21 -71 -12 -21 -23 -58 -25 -85 -6 -89 13 -84 -249 -77 -268 7 -261 4 -253 98 3 31 1 57 -3 57 -15 0 17 89 46 132 54 78 153 141 257 162 l62 14 -30 13 -30 13 30 4 c17 2 60 -2 97 -9 59 -10 73 -10 105 4 39 16 63 25 74 26 4 1 11 -11 17 -26z m382 3 c-48 -12 -95 -35 -71 -36 8 0 11 -7 8 -20 -3 -11 -1 -20 4 -20 5 0 9 -9 9 -21 0 -13 -4 -18 -12 -13 -7 4 -8 3 -4 -5 4 -6 11 -9 16 -6 5 3 10 -1 12 -9 2 -11 11 -11 50 -1 l47 12 7 -30 c5 -23 2 -34 -12 -44 -10 -7 -24 -11 -31 -9 -7 3 -13 0 -13 -5 0 -6 -9 -9 -20 -6 -11 3 -20 1 -20 -4 0 -5 -6 -9 -14 -9 -15 0 -21 21 -31 105 -4 28 -8 62 -11 76 -5 27 12 39 71 52 44 10 57 4 15 -7z m34 -57 c8 -48 9 -44 -26 -53 -23 -5 -27 -2 -37 26 -15 43 -14 56 7 61 43 11 49 7 56 -34z m716 16 c0 -14 -4 -25 -10 -25 -5 0 -7 7 -4 15 4 8 1 15 -6 15 -6 0 -8 5 -5 10 11 18 25 10 25 -15z m70 -30 c0 -5 -5 -3 -10 5 -5 8 -10 20 -10 25 0 6 5 3 10 -5 5 -8 10 -19 10 -25z m-1000 13 c0 -16 -117 -139 -155 -164 -23 -15 -28 -15 -36 -3 -15 25 -10 35 37 68 25 18 66 51 90 72 47 41 64 48 64 27z m-114 -43 c-45 -40 -62 -45 -46 -14 10 17 61 48 80 48 3 0 -13 -15 -34 -34z m792 -6 c24 -38 23 -58 -4 -65 -16 -4 -23 -12 -20 -20 5 -12 2 -12 -17 -3 -14 8 -17 14 -9 17 6 2 9 8 6 14 -5 7 3 9 22 5 l29 -6 -30 14 c-35 17 -59 19 -50 5 3 -5 1 -10 -5 -10 -7 0 -10 6 -7 13 2 6 13 12 25 11 12 0 19 3 16 8 -6 9 13 38 25 38 3 0 12 -10 19 -21z m305 4 c-7 -2 -21 -2 -30 0 -10 3 -4 5 12 5 17 0 24 -2 18 -5z m-973 -12 c0 -5 -14 -47 -31 -93 -32 -85 -49 -107 -139 -178 -24 -19 -63 -52 -86 -72 -23 -21 -49 -38 -58 -38 -17 0 -22 15 -7 24 5 3 7 23 4 44 -3 26 2 50 19 82 19 36 35 50 88 77 41 20 89 57 130 98 62 63 80 75 80 56z m937 -7 c-3 -3 -12 -4 -19 -1 -8 3 -5 6 6 6 11 1 17 -2 13 -5z m60 0 c-3 -3 -12 -4 -19 -1 -8 3 -5 6 6 6 11 1 17 -2 13 -5z m-31 -52 c-1 -40 -29 -82 -41 -61 -4 6 2 13 14 16 24 6 28 23 6 23 -20 0 -19 10 3 26 16 13 16 13 -1 14 -20 0 -13 20 7 20 8 0 12 -14 12 -38z m38 27 c-3 -6 0 -15 7 -20 8 -5 10 -9 4 -9 -19 0 -38 18 -31 29 4 6 12 11 17 11 6 0 7 -5 3 -11z m-424 -33 c0 -2 3 -11 6 -19 4 -11 -1 -13 -19 -10 -27 5 -52 -19 -43 -42 6 -17 32 -20 41 -5 4 6 1 17 -5 25 -10 12 -7 14 19 12 31 -2 45 -27 15 -27 -8 0 -12 -4 -9 -10 3 -5 1 -10 -5 -10 -6 0 -9 -3 -7 -7 3 -5 -1 -14 -9 -20 -7 -7 -15 -9 -19 -4 -3 5 1 12 7 14 9 4 7 6 -3 6 -9 1 -24 9 -33 20 -16 18 -15 20 13 44 16 13 27 28 24 31 -4 3 1 6 10 6 10 0 17 -2 17 -4z m145 -26 c-3 -4 1 -11 7 -13 7 -3 4 -6 -7 -6 -16 -1 -17 -3 -5 -10 8 -6 17 -8 21 -6 3 3 7 -7 7 -20 0 -14 -2 -25 -3 -25 -19 0 -68 27 -76 41 -9 18 -7 21 18 18 4 0 11 9 15 21 4 12 12 18 18 15 6 -4 8 -10 5 -15z m288 13 c-7 -2 -19 -2 -25 0 -7 3 -2 5 12 5 14 0 19 -2 13 -5z m-1252 -44 c-18 -29 -21 -31 -27 -14 -5 13 0 24 16 37 31 25 35 17 11 -23z m223 -43 c-23 -67 -33 -82 -100 -145 -67 -64 -78 -71 -115 -71 l-41 0 74 61 c40 33 92 76 115 94 29 25 46 49 58 85 9 27 20 50 25 50 5 0 -3 -33 -16 -74z m576 34 c0 -5 -4 -10 -9 -10 -6 0 -13 5 -16 10 -3 6 1 10 9 10 9 0 16 -4 16 -10z m473 -27 c-3 -10 -10 -23 -15 -30 -6 -7 -4 -14 3 -19 9 -5 7 -9 -7 -14 -12 -5 -23 -1 -31 9 -18 24 -16 33 7 26 13 -4 20 -2 20 7 0 12 18 38 27 38 1 0 0 -8 -4 -17z m-982 -53 c18 0 19 -2 4 -29 -8 -16 -24 -54 -36 -85 l-20 -56 -81 0 -80 0 70 65 c56 52 74 76 88 118 l18 52 8 -32 c6 -23 14 -33 29 -33z m751 -37 c-2 -7 -8 -10 -13 -7 -5 3 -7 10 -4 15 4 5 -2 6 -12 2 -15 -6 -16 -4 -6 9 7 8 9 19 5 23 -4 5 -1 5 7 0 9 -5 12 -3 9 6 -3 8 -12 13 -19 11 -8 -2 -6 5 6 18 l20 22 5 -43 c3 -24 4 -50 2 -56z m-476 78 c-3 -5 -15 -7 -26 -4 -14 4 -20 1 -18 -8 2 -10 -9 -14 -42 -15 -46 -1 -96 14 -55 17 11 1 25 1 32 0 6 -1 14 2 16 6 3 5 26 9 52 11 26 1 44 -2 41 -7z m340 -6 c9 -8 12 -15 7 -16 -4 0 1 -4 11 -8 18 -7 17 -10 -11 -41 -29 -33 -63 -37 -63 -8 0 9 3 9 12 0 15 -15 32 -16 23 -2 -3 6 -1 10 5 10 6 0 8 5 5 10 -3 6 2 11 12 11 16 1 16 2 1 6 -9 2 -28 -3 -43 -13 -14 -9 -29 -14 -33 -10 -4 4 1 12 11 17 9 6 15 14 13 18 -3 5 7 7 22 5 15 -2 19 -1 10 2 -19 6 -23 16 -11 27 9 10 13 9 29 -8z m-182 -17 c-4 -6 -2 -8 4 -5 5 4 18 4 28 0 16 -6 16 -7 -2 -14 -18 -7 -18 -8 1 -9 16 -1 14 -4 -10 -16 -16 -8 -22 -12 -13 -10 15 5 16 3 5 -14 -6 -11 -14 -20 -17 -20 -12 0 -9 54 2 62 10 6 10 8 1 8 -7 0 -13 9 -13 21 0 11 5 17 10 14 6 -4 7 -11 4 -17z m246 12 c0 -5 -2 -10 -4 -10 -3 0 -8 5 -11 10 -3 6 -1 10 4 10 6 0 11 -4 11 -10z m220 6 c0 -11 -19 -15 -25 -6 -3 5 1 10 9 10 9 0 16 -2 16 -4z m-632 -48 c-10 -8 -10 -11 0 -15 17 -7 15 -26 -3 -19 -8 3 -14 2 -14 -2 4 -22 -3 -30 -21 -25 -11 3 -20 9 -20 14 0 5 -7 9 -15 9 -8 0 -15 5 -15 11 0 8 12 10 36 6 29 -5 35 -3 30 8 -3 8 -3 22 0 30 5 12 9 13 21 4 11 -10 11 -14 1 -21z m-180 8 c-14 -14 -47 -16 -42 -1 2 5 15 11 28 11 19 1 22 -1 14 -10z m45 -32 c-2 -7 1 -14 9 -17 7 -2 2 -2 -12 0 -38 7 -47 21 -25 37 21 15 37 4 28 -20z m77 32 c0 -11 -19 -15 -25 -6 -3 5 1 10 9 10 9 0 16 -2 16 -4z m710 -20 c0 -9 -40 -13 -46 -5 -3 5 6 9 20 9 14 0 26 -2 26 -4z m-845 -24 c-19 -13 -11 -37 13 -40 12 -2 20 -7 17 -12 -9 -14 -67 11 -61 26 3 8 0 11 -10 7 -20 -7 -18 -11 19 -33 19 -12 25 -20 16 -20 -28 0 -61 33 -54 53 4 9 10 15 14 13 4 -3 13 -1 21 5 18 11 40 12 25 1z m610 -2 c3 -5 1 -10 -5 -10 -6 0 -8 -5 -5 -10 5 -8 11 -7 21 1 8 6 14 10 15 8 7 -39 7 -49 -1 -49 -6 0 -10 4 -10 8 0 4 -8 8 -19 8 -11 0 -17 -5 -14 -13 3 -9 -4 -13 -21 -13 -24 0 -25 2 -14 20 7 11 16 20 20 20 5 0 8 9 8 20 0 21 15 27 25 10z m-157 -12 c17 -17 15 -23 -13 -36 -34 -16 -45 -15 -45 3 0 9 10 15 28 16 17 1 20 3 9 6 -9 2 -15 9 -12 14 8 12 19 11 33 -3z m386 -20 c6 -4 7 -10 3 -15 -10 -9 -27 16 -26 37 1 13 1 13 6 0 3 -8 11 -18 17 -22z m33 12 c2 -18 0 -18 -13 -6 -17 18 -18 26 -1 26 7 0 13 -9 14 -20z m-832 0 c-3 -5 -15 -10 -26 -10 -11 0 -17 5 -14 10 3 6 15 10 26 10 11 0 17 -4 14 -10z m78 -30 c5 0 7 6 4 14 -4 10 0 12 14 9 20 -6 20 -6 -1 -25 -17 -16 -24 -17 -36 -7 -25 20 -29 0 -4 -21 13 -11 18 -20 13 -20 -6 0 -16 7 -23 15 -7 8 -20 15 -29 15 -14 1 -14 2 1 11 11 6 15 16 11 26 -6 15 -5 15 17 0 14 -9 28 -17 33 -17z m-165 -21 c11 0 9 -3 -7 -10 -13 -5 -26 -7 -29 -4 -3 3 0 5 6 5 6 0 10 6 8 13 -1 6 -1 9 1 5 3 -5 12 -8 21 -9z m520 1 c-7 -11 -23 -20 -35 -20 -22 0 -22 1 -6 20 10 11 25 20 35 20 16 0 16 -3 6 -20z m422 4 l25 -15 -28 6 c-35 7 -33 -17 3 -26 18 -5 12 -7 -22 -8 -26 0 -50 4 -53 9 -3 6 4 10 15 10 15 0 20 5 17 14 -11 28 7 32 43 10z m-730 2 c0 -2 -7 -7 -16 -10 -8 -3 -12 -2 -9 4 6 10 25 14 25 6z m456 -12 c-3 -9 -6 -18 -6 -20 0 -2 -11 -4 -25 -4 -14 0 -25 5 -25 11 0 6 7 8 15 5 9 -3 18 1 21 9 4 8 11 15 16 15 6 0 7 -7 4 -16z m-552 -25 c-3 -5 -24 -8 -47 -7 -38 1 -39 2 -9 5 32 4 33 5 15 19 -16 12 -14 13 14 3 18 -6 30 -15 27 -20z m121 22 c-3 -5 3 -11 12 -14 10 -2 -4 -4 -32 -5 -50 0 -50 0 -20 13 37 16 48 18 40 6z m-188 -7 c-3 -3 -12 -4 -19 -1 -8 3 -5 6 6 6 11 1 17 -2 13 -5z m688 -15 c-8 -12 -35 -12 -35 1 0 5 7 6 17 3 12 -5 14 -3 8 7 -5 9 -4 11 4 6 6 -4 9 -12 6 -17z m-322 4 c-7 -2 -19 -2 -25 0 -7 3 -2 5 12 5 14 0 19 -2 13 -5z m150 0 c-7 -2 -19 -2 -25 0 -7 3 -2 5 12 5 14 0 19 -2 13 -5z m-568 -13 c-3 -5 -16 -10 -28 -10 -18 0 -19 2 -7 10 20 13 43 13 35 0z" /><path d="M2998 995 c-3 -14 -1 -25 3 -25 5 0 9 11 9 25 0 14 -2 25 -4 25 -2 0 -6 -11 -8 -25z" /><path d="M2986 923 c-11 -11 -7 -38 9 -59 14 -18 15 -17 13 19 -2 38 -10 52 -22 40z" /><path d="M1930 920 c0 -5 9 -10 21 -10 11 0 17 5 14 10 -3 6 -13 10 -21 10 -8 0 -14 -4 -14 -10z" /><path d="M2448 653 c6 -2 18 -2 25 0 6 3 1 5 -13 5 -14 0 -19 -2 -12 -5z" /><path d="M2355 600 c-3 -5 -1 -10 4 -10 6 0 11 5 11 10 0 6 -2 10 -4 10 -3 0 -8 -4 -11 -10z" /><path d="M3680 1466 c0 -3 9 -10 20 -16 11 -6 20 -8 20 -6 0 3 -9 10 -20 16 -11 6 -20 8 -20 6z" /><path d="M4260 1455 c0 -10 -10 -15 -33 -15 -18 0 -41 -6 -51 -13 -24 -17 -101 -13 -140 8 -44 24 -106 7 -137 -38 l-22 -32 30 28 c39 36 88 50 122 34 20 -10 25 -20 26 -52 1 -51 29 -93 68 -103 22 -6 33 -16 37 -33 4 -14 27 -38 60 -61 58 -39 101 -53 57 -18 -14 11 -28 20 -32 20 -12 0 -65 41 -65 51 0 5 11 14 24 19 13 5 27 14 31 20 4 6 14 8 24 5 9 -4 36 -8 61 -11 53 -4 29 11 -32 21 -30 5 -38 10 -38 28 -1 18 -3 16 -15 -11 -29 -66 -77 -53 -86 24 l-6 49 -1 -47 c-1 -27 -6 -48 -10 -48 -18 0 -42 27 -56 61 -14 34 -14 38 5 55 15 14 25 16 47 8 21 -7 30 -6 44 8 21 21 68 24 86 6 9 -9 12 -5 12 20 0 18 -2 32 -5 32 -3 0 -5 -7 -5 -15z" /><path d="M2640 1452 c0 -4 21 -15 46 -24 26 -9 42 -13 38 -8 -14 13 -84 40 -84 32z" /><path d="M2871 1434 c0 -11 3 -14 6 -6 3 7 2 16 -1 19 -3 4 -6 -2 -5 -13z" /><path d="M2620 1436 c0 -7 87 -66 96 -66 4 0 -4 8 -17 18 -37 27 -79 53 -79 48z" /><path d="M3642 1420 c0 -14 2 -19 5 -12 2 6 2 18 0 25 -3 6 -5 1 -5 -13z" /><path d="M4961 1414 c0 -11 3 -14 6 -6 3 7 2 16 -1 19 -3 4 -6 -2 -5 -13z" /><path d="M5198 1414 c-16 -8 -28 -19 -28 -25 0 -6 16 -1 35 11 35 22 76 24 82 4 2 -5 -11 -23 -28 -40 -17 -16 -40 -39 -52 -51 -34 -37 -51 -30 -43 18 4 26 3 38 -4 34 -13 -8 -13 -92 1 -101 16 -10 150 131 143 150 -8 21 -69 21 -106 0z" /><path d="M3206 1406 c10 -8 21 -12 24 -10 5 6 -21 24 -34 24 -6 0 -1 -6 10 -14z" /><path d="M5877 1359 c-10 -28 -16 -53 -14 -56 3 -2 8 5 12 16 8 26 17 26 32 1 11 -16 9 -21 -9 -35 -25 -17 -52 -20 -43 -5 3 6 4 10 2 10 -2 0 -18 -22 -35 -48 -17 -26 -43 -54 -59 -62 -15 -8 -43 -32 -61 -52 -41 -46 -57 -41 -32 10 9 20 21 48 25 62 l7 25 -21 -27 c-12 -14 -35 -29 -52 -33 -17 -4 -33 -14 -36 -22 -7 -17 14 -34 32 -27 7 3 15 -4 18 -15 10 -38 30 -26 157 101 26 26 58 50 72 53 30 8 26 14 98 -160 23 -55 48 -114 55 -131 26 -56 47 -157 42 -200 -7 -64 -59 -166 -106 -210 -69 -63 -87 -71 -174 -78 -72 -6 -92 -3 -162 20 -82 26 -115 47 -115 71 0 18 6 17 40 -8 24 -18 38 -21 83 -16 87 9 147 43 179 102 15 28 30 71 33 95 l5 45 -14 -47 c-8 -26 -25 -67 -40 -92 -21 -37 -36 -48 -91 -70 -90 -36 -126 -29 -199 36 -54 48 -81 55 -31 8 17 -16 23 -30 19 -45 -4 -15 1 -29 14 -41 25 -25 33 -49 19 -63 -8 -8 -5 -11 12 -11 18 0 21 4 16 20 -6 18 -3 20 22 15 48 -11 54 -14 48 -25 -8 -13 43 -13 345 3 256 13 568 15 755 4 292 -17 399 -17 419 -2 12 9 42 15 77 15 32 0 60 4 63 8 2 4 -28 6 -67 4 -40 -3 -75 -9 -78 -14 -7 -10 -52 -13 -156 -10 l-72 2 -55 74 c-61 82 -147 176 -161 176 -5 0 9 -19 31 -42 45 -48 108 -125 144 -177 l24 -34 -109 6 c-87 6 -110 10 -120 24 -7 10 -25 32 -39 48 -14 17 -57 69 -94 117 -37 48 -70 88 -74 88 -17 0 -6 -27 20 -51 34 -31 79 -82 117 -134 17 -22 36 -46 43 -53 17 -19 15 -35 -4 -28 -9 3 -36 6 -60 6 -42 0 -44 1 -44 30 0 17 -5 30 -11 30 -7 0 -8 -11 -4 -30 l7 -30 -91 0 c-83 0 -91 2 -91 19 0 17 -64 149 -116 238 -22 38 -40 44 -30 11 20 -67 36 -160 36 -210 l0 -58 -47 0 c-27 0 -64 -3 -84 -6 -35 -6 -36 -5 -47 37 l-11 44 3 -42 c4 -41 3 -43 -24 -43 -15 0 -48 -3 -74 -6 l-46 -7 69 69 c57 57 73 80 90 131 41 122 28 188 -83 440 -55 126 -65 155 -55 170 9 15 7 25 -9 52 -11 18 -17 41 -15 52 10 38 -3 18 -20 -32z m-219 -215 c-8 -9 -26 -14 -39 -12 l-24 5 25 11 c14 6 32 11 40 11 12 1 12 -2 -2 -15z m609 -489 c14 -27 34 -73 44 -102 l18 -53 -40 0 c-38 0 -39 1 -39 34 0 19 -7 70 -15 113 -8 43 -15 80 -15 83 0 8 19 -22 47 -75z" /><path d="M2355 1370 c11 -40 49 -103 65 -108 12 -4 13 -3 2 10 -7 9 -26 40 -43 69 -17 30 -27 43 -24 29z" /><path d="M3723 1373 c-9 -23 6 -43 31 -43 17 0 30 -9 41 -27 l15 -28 -2 25 c-3 21 2 26 24 28 32 4 41 -19 36 -84 -2 -32 -7 -40 -25 -42 -25 -4 -32 -22 -9 -22 41 0 65 62 47 122 -12 38 -14 39 -49 37 -70 -4 -92 0 -92 17 0 12 7 15 29 12 17 -2 28 -1 26 3 -9 14 -67 16 -72 2z" /><path d="M4972 1370 c0 -14 2 -19 5 -12 2 6 2 18 0 25 -3 6 -5 1 -5 -13z" /><path d="M5386 1362 c-6 -11 23 -175 34 -186 31 -31 42 92 15 158 -14 33 -37 47 -49 28z m38 -29 c12 -43 17 -121 8 -127 -9 -5 -32 86 -32 126 0 23 17 24 24 1z" /><path d="M7106 1345 c-18 -28 -21 -45 -6 -45 17 0 11 -17 -19 -49 -22 -24 -25 -31 -13 -31 10 -1 35 -3 57 -6 29 -4 36 -2 25 5 -8 6 -25 11 -37 11 -27 0 -28 3 -7 35 9 14 14 32 10 40 -3 8 -1 26 4 40 12 32 7 32 -14 0z" /><path d="M2433 1343 c-3 -6 -3 -20 -1 -30 3 -15 12 -18 53 -15 28 1 75 9 105 17 30 8 39 12 20 9 -113 -16 -160 -17 -160 -1 0 12 20 16 108 22 154 9 157 14 8 12 -89 -1 -130 -6 -133 -14z" /><path d="M2712 1351 c-11 -6 -10 -9 5 -13 10 -3 27 -9 38 -14 20 -7 20 -7 1 14 -21 24 -25 25 -44 13z" /><path d="M3957 1349 c-2 -8 -9 -30 -15 -49 -6 -19 -9 -44 -6 -55 3 -11 -2 -39 -10 -62 -8 -24 -11 -43 -6 -43 6 0 10 5 10 10 0 6 8 10 17 10 13 0 14 3 5 12 -8 8 -7 19 6 42 22 40 30 46 70 46 23 0 34 -5 38 -17 13 -44 48 -104 69 -117 13 -9 29 -32 36 -53 6 -21 20 -49 30 -62 11 -13 19 -36 19 -51 0 -20 15 -41 58 -82 57 -55 99 -84 109 -75 2 3 -6 11 -19 18 -36 19 -138 120 -138 137 0 11 7 13 33 7 113 -26 143 -32 151 -27 5 3 -25 13 -67 23 -43 10 -90 25 -106 33 -26 14 -61 68 -61 94 0 17 81 24 134 12 26 -6 57 -8 68 -4 17 5 19 3 13 -18 -4 -12 -15 -41 -26 -62 -19 -40 -19 -53 0 -42 9 6 51 126 51 146 0 5 -13 3 -30 -3 -22 -8 -41 -8 -76 1 -25 7 -67 10 -92 7 -36 -5 -54 -2 -78 13 -32 21 -64 75 -64 111 0 12 -12 28 -27 38 -16 9 -42 30 -60 46 -24 22 -33 26 -36 16z m43 -43 l29 -24 -40 -15 c-43 -17 -47 -12 -33 41 8 27 10 27 44 -2z" /><path d="M3588 1343 c6 -2 18 -2 25 0 6 3 1 5 -13 5 -14 0 -19 -2 -12 -5z" /><path d="M2933 1333 c15 -2 37 -2 50 0 12 2 0 4 -28 4 -27 0 -38 -2 -22 -4z" /><path d="M3530 1330 c-18 -12 -2 -12 25 0 13 6 15 9 5 9 -8 0 -22 -4 -30 -9z" /><path d="M5490 1315 c0 -15 4 -24 10 -20 6 3 10 12 10 20 0 8 -4 17 -10 20 -6 4 -10 -5 -10 -20z" /><path d="M2647 1288 c2 -5 30 -8 61 -8 31 0 70 -7 85 -15 25 -13 29 -13 34 1 3 8 4 16 2 18 -8 8 -187 11 -182 4z" /><path d="M4485 1280 c3 -5 14 -10 23 -10 15 0 15 2 2 10 -20 13 -33 13 -25 0z" /><path d="M5006 1253 c36 -31 48 -37 68 -34 4 1 15 -4 24 -11 13 -11 14 -10 10 2 -2 8 -19 16 -36 18 -21 2 -38 13 -51 31 -11 15 -27 28 -36 28 -11 0 -3 -12 21 -34z" /><path d="M3612 1260 c0 -14 2 -19 5 -12 2 6 2 18 0 25 -3 6 -5 1 -5 -13z" /><path d="M2855 1260 c-3 -6 1 -7 9 -4 18 7 21 14 7 14 -6 0 -13 -4 -16 -10z" /><path d="M5632 1248 c-6 -6 -27 -12 -47 -13 -20 -1 -42 -8 -48 -14 -9 -9 -3 -10 23 -5 50 10 130 43 105 43 -12 1 -26 -4 -33 -11z" /><path d="M5695 1250 c-3 -5 -1 -10 4 -10 6 0 11 5 11 10 0 6 -2 10 -4 10 -3 0 -8 -4 -11 -10z" /><path d="M6070 1258 c0 -4 11 -33 25 -64 15 -33 19 -52 11 -45 -8 6 -19 25 -26 41 -7 17 -17 30 -22 30 -13 0 37 -88 72 -127 16 -18 34 -33 40 -33 13 0 13 23 1 36 -5 5 -30 45 -55 89 -25 44 -46 77 -46 73z" /><path d="M4425 1205 c-3 -26 -4 -49 -2 -52 3 -3 9 16 12 42 4 25 5 48 2 51 -2 3 -8 -16 -12 -41z" /><path d="M6930 1231 c0 -5 5 -13 10 -16 6 -3 10 -2 10 4 0 5 -4 13 -10 16 -5 3 -10 2 -10 -4z" /><path d="M6975 1220 c3 -5 8 -10 11 -10 2 0 4 5 4 10 0 6 -5 10 -11 10 -5 0 -7 -4 -4 -10z" /><path d="M3720 1208 c0 -7 -12 -24 -25 -37 -14 -13 -25 -31 -25 -40 0 -11 4 -8 13 9 19 37 56 54 90 41 24 -9 26 -13 17 -32 -7 -11 -9 -23 -6 -26 9 -9 25 43 20 64 -4 15 -12 19 -29 16 -12 -3 -26 0 -29 6 -10 15 -26 14 -26 -1z" /><path d="M3960 1203 c0 -5 10 -18 23 -29 l22 -19 -20 25 c-11 14 -21 27 -22 29 -2 2 -3 0 -3 -6z" /><path d="M5191 1154 c-13 -30 -22 -57 -19 -59 2 -3 15 20 27 51 30 72 23 79 -8 8z" /><path d="M7200 1194 c56 -25 80 -34 80 -29 0 6 -90 45 -104 45 -6 -1 5 -8 24 -16z" /><path d="M4475 1190 c3 -5 15 -10 26 -10 11 0 17 5 14 10 -3 6 -15 10 -26 10 -11 0 -17 -4 -14 -10z" /><path d="M5110 1178 c0 -8 9 -23 20 -33 11 -10 20 -15 20 -11 0 4 -9 19 -20 33 -13 17 -20 20 -20 11z" /><path d="M3458 1173 c7 -3 16 -2 19 1 4 3 -2 6 -13 5 -11 0 -14 -3 -6 -6z" /><path d="M5505 1170 c-3 -5 -2 -10 4 -10 5 0 13 5 16 10 3 6 2 10 -4 10 -5 0 -13 -4 -16 -10z" /><path d="M6714 1125 c-85 -53 -162 -120 -150 -132 3 -3 33 19 66 50 34 30 93 72 131 92 38 20 69 38 69 41 0 14 -37 -2 -116 -51z" /><path d="M3590 1145 c0 -25 0 -25 -25 -9 -39 25 -41 10 -3 -17 45 -31 48 -37 48 -91 0 -27 3 -48 8 -48 13 0 13 86 -1 121 -8 19 -12 39 -10 46 2 6 -1 14 -6 18 -7 4 -11 -4 -11 -20z" /><path d="M3388 1140 c6 -8 12 -27 12 -44 0 -18 4 -26 9 -20 11 12 26 62 16 51 -5 -4 -18 1 -29 10 -12 10 -15 11 -8 3z" /><path d="M3335 1130 c-16 -7 -17 -9 -3 -9 9 -1 20 4 23 9 7 11 7 11 -20 0z" /><path d="M4913 1070 c0 -41 2 -58 4 -37 2 20 2 54 0 75 -2 20 -4 3 -4 -38z" /><path d="M3860 1098 c-19 -10 -47 -18 -61 -18 -15 0 -44 -7 -64 -16 -30 -12 -44 -13 -62 -5 -33 15 -38 14 -22 -5 21 -26 66 -44 108 -44 34 0 48 7 93 49 29 27 51 51 48 53 -3 2 -21 -4 -40 -14z m-30 -38 c0 -19 -66 -43 -96 -35 l-29 8 40 18 c44 20 85 25 85 9z" /><path d="M3963 1085 c0 -22 2 -30 4 -17 2 12 2 30 0 40 -3 9 -5 -1 -4 -23z" /><path d="M6370 1111 c0 -6 4 -13 10 -16 6 -3 7 1 4 9 -7 18 -14 21 -14 7z" /><path d="M7404 1111 c9 -14 91 -33 127 -28 33 4 32 4 -7 5 -23 1 -60 9 -83 17 -23 8 -39 11 -37 6z" /><path d="M4470 1100 c0 -5 10 -10 23 -10 18 0 19 2 7 10 -19 13 -30 13 -30 0z" /><path d="M3471 1093 c-1 -11 10 -37 57 -133 14 -27 29 -39 77 -57 66 -26 91 -25 157 7 23 11 44 20 46 20 5 0 -4 -58 -14 -100 -5 -17 -3 -22 4 -15 16 16 31 102 20 113 -15 15 0 32 27 32 41 0 102 30 113 56 7 15 8 24 2 24 -6 0 -10 -7 -10 -15 0 -18 -42 -40 -91 -49 -21 -4 -42 -13 -49 -21 -16 -19 -48 -19 -94 0 -21 9 -58 15 -84 13 -44 -3 -47 -1 -68 36 -12 22 -35 45 -52 52 -17 7 -32 21 -35 31 -3 10 -5 13 -6 6z m220 -153 c11 0 11 -11 1 -28 -6 -9 -15 -10 -33 -3 -23 9 -13 15 21 12 13 -2 13 -1 0 8 -8 6 -24 8 -35 5 -16 -4 -17 -3 -5 5 8 6 21 9 28 6 8 -3 18 -5 23 -5z" /><path d="M7570 1086 c0 -2 7 -6 15 -10 8 -3 15 -1 15 4 0 6 -7 10 -15 10 -8 0 -15 -2 -15 -4z" /><path d="M6390 1075 c0 -14 45 -105 52 -105 11 0 11 0 -17 58 -22 46 -35 63 -35 47z" /><path d="M5596 1045 c-9 -13 -16 -29 -16 -35 0 -17 -18 -11 -24 8 -4 13 -4 13 -3 -3 1 -11 -2 -26 -6 -32 -5 -8 -4 -13 2 -13 6 0 11 5 11 10 0 16 86 11 125 -7 19 -9 35 -20 35 -24 0 -18 -19 -17 -59 3 -32 15 -45 18 -54 9 -8 -8 -3 -11 19 -11 31 0 64 -26 64 -49 0 -7 15 7 33 31 41 54 83 71 103 43 12 -16 14 -16 14 -2 0 9 -10 21 -21 28 -18 9 -27 7 -52 -12 -27 -20 -34 -21 -61 -10 -17 7 -47 17 -66 23 -44 13 -42 10 -31 42 13 33 8 33 -13 1z" /><path d="M3396 1045 c4 -9 -2 -18 -17 -24 -26 -10 -68 -51 -52 -51 5 0 18 9 28 20 28 31 28 18 -1 -54 -27 -67 -39 -80 -47 -48 -3 12 -5 13 -6 2 0 -8 4 -22 9 -30 12 -18 21 -7 62 85 33 76 44 115 29 115 -6 0 -8 -7 -5 -15z" /><path d="M4056 1047 c3 -10 9 -15 12 -12 3 3 0 11 -7 18 -10 9 -11 8 -5 -6z" /><path d="M7567 1033 c-16 -15 -6 -41 18 -45 13 -3 22 -1 19 3 -3 5 -12 9 -21 9 -10 0 -14 6 -10 20 5 21 4 24 -6 13z" /><path d="M4425 1010 c3 -5 10 -10 16 -10 5 0 9 5 9 10 0 6 -7 10 -16 10 -8 0 -12 -4 -9 -10z" /><path d="M4078 983 c5 -21 7 -23 10 -9 2 10 0 22 -6 28 -6 6 -7 0 -4 -19z" /><path d="M4092 920 c0 -19 2 -27 5 -17 2 9 2 25 0 35 -3 9 -5 1 -5 -18z" /><path d="M5820 933 c0 -10 -11 -37 -24 -59 -16 -28 -21 -46 -14 -55 7 -11 8 -9 6 6 -4 27 28 32 37 5 4 -12 9 -19 12 -16 3 3 0 20 -6 38 l-11 33 23 -25 c12 -14 41 -48 64 -75 36 -42 45 -48 60 -39 25 15 28 57 6 76 -22 20 -79 36 -69 19 4 -6 15 -11 25 -11 25 0 53 -33 45 -54 -10 -27 -30 -19 -66 27 -18 23 -43 53 -56 67 -17 18 -22 33 -18 53 3 15 1 27 -4 27 -6 0 -10 -8 -10 -17z" /><path d="M6505 900 c27 -27 51 -50 54 -50 3 0 -17 23 -44 50 -27 28 -51 50 -54 50 -3 0 17 -22 44 -50z" /><path d="M3290 925 c0 -8 4 -15 10 -15 5 0 7 7 4 15 -4 8 -8 15 -10 15 -2 0 -4 -7 -4 -15z" /><path d="M5676 865 c-3 -8 -1 -15 3 -15 5 0 11 7 15 15 3 8 1 15 -3 15 -5 0 -11 -7 -15 -15z" /><path d="M4091 844 c0 -11 3 -14 6 -6 3 7 2 16 -1 19 -3 4 -6 -2 -5 -13z" /><path d="M4850 814 c-23 -26 -100 -75 -134 -85 -30 -8 -149 6 -211 25 -11 4 0 -3 25 -15 35 -17 64 -22 131 -23 84 -1 88 0 129 33 30 24 44 30 50 22 4 -8 11 -2 20 19 15 35 9 48 -10 24z" /><path d="M5530 820 c8 -5 26 -10 40 -10 20 0 22 2 10 10 -8 5 -26 10 -40 10 -20 0 -22 -2 -10 -10z" /><path d="M4101 794 c0 -11 3 -14 6 -6 3 7 2 16 -1 19 -3 4 -6 -2 -5 -13z" /><path d="M6630 785 c13 -14 26 -25 28 -25 3 0 -5 11 -18 25 -13 14 -26 25 -28 25 -3 0 5 -11 18 -25z" /><path d="M5430 779 c0 -20 74 -86 114 -103 50 -21 53 -20 25 4 l-24 19 32 1 c55 0 85 -22 46 -34 -17 -5 -9 -4 79 10 20 4 39 12 42 20 4 10 0 11 -20 2 -18 -8 -37 -8 -75 0 -28 7 -71 12 -96 12 -40 0 -50 5 -84 40 -22 22 -39 35 -39 29z" /><path d="M5778 775 c-3 -11 -9 -29 -13 -40 -7 -19 -7 -19 9 -4 10 9 16 27 14 40 -3 22 -4 22 -10 4z" /><path d="M3767 773 c-4 -3 -7 -11 -7 -17 0 -6 5 -5 12 2 6 6 9 14 7 17 -3 3 -9 2 -12 -2z" /><path d="M5390 757 c0 -14 5 -29 10 -32 7 -4 8 3 4 22 -9 38 -14 42 -14 10z" /><path d="M3716 699 c-23 -25 -71 -57 -122 -81 -78 -37 -92 -41 -172 -42 -66 -1 -95 3 -119 17 -18 10 -33 14 -33 9 0 -16 95 -42 153 -42 91 0 204 47 298 122 14 12 44 58 37 58 -2 0 -20 -18 -42 -41z" /><path d="M5766 692 c-3 -6 -1 -14 5 -17 14 -9 20 -2 10 14 -6 8 -11 9 -15 3z" /><path d="M4190 670 c13 -8 12 -11 -5 -24 -11 -9 -15 -16 -9 -16 5 0 19 7 30 15 16 13 17 16 4 25 -8 5 -19 10 -25 10 -5 0 -3 -5 5 -10z" /><path d="M6496 623 c15 -48 32 -77 20 -33 -3 14 -9 37 -12 53 -4 15 -10 27 -14 27 -5 0 -2 -21 6 -47z" /><path d="M7520 651 c0 -5 12 -11 27 -14 26 -5 26 -4 8 9 -22 16 -35 18 -35 5z" /><path d="M5530 645 c0 -15 18 -40 24 -34 3 3 -1 14 -9 25 -8 10 -14 15 -15 9z" /><path d="M5640 621 c0 -12 5 -21 10 -21 6 0 10 6 10 14 0 8 -4 18 -10 21 -5 3 -10 -3 -10 -14z" /><path d="M4128 612 c-16 -9 -28 -20 -28 -25 0 -4 14 2 30 15 26 19 36 29 28 28 -2 0 -15 -8 -30 -18z" /><path d="M7513 599 c-34 -22 -40 -29 -24 -29 10 0 70 49 61 50 -3 0 -20 -10 -37 -21z" /><path d="M7433 560 c-12 -5 -49 -12 -82 -16 -34 -3 -61 -10 -61 -14 0 -3 28 -3 63 1 61 8 117 24 117 34 0 7 -11 5 -37 -5z" /><path d="M3281 534 c0 -11 3 -14 6 -6 3 7 2 16 -1 19 -3 4 -6 -2 -5 -13z" /><path d="M4027 486 c-5 -13 1 -16 36 -15 34 2 36 3 12 6 -16 3 -33 9 -36 15 -4 5 -9 3 -12 -6z" /><path d="M2895 390 c27 -12 43 -12 25 0 -8 5 -22 9 -30 9 -10 0 -8 -3 5 -9z" /><path d="M3184 379 c-19 -22 -19 -22 4 -10 12 6 22 16 22 21 0 15 -5 12 -26 -11z" /><path d="M3558 393 c7 -3 16 -2 19 1 4 3 -2 6 -13 5 -11 0 -14 -3 -6 -6z" /><path d="M3600 393 c8 -3 18 -11 22 -17 5 -7 8 -4 8 7 0 11 -7 17 -22 16 -16 0 -18 -2 -8 -6z" /><path d="M3998 393 c7 -3 16 -2 19 1 4 3 -2 6 -13 5 -11 0 -14 -3 -6 -6z" /><path d="M2984 364 c-4 -17 -2 -29 7 -35 21 -13 27 -11 40 14 12 21 11 21 -8 4 -20 -17 -33 -14 -33 10 0 7 9 13 21 13 11 0 17 5 14 10 -12 19 -35 10 -41 -16z" /><path d="M3080 386 c0 -2 7 -7 16 -10 8 -3 12 -2 9 4 -6 10 -25 14 -25 6z" /><path d="M4906 383 c-12 -12 -6 -22 9 -17 8 4 23 0 32 -7 14 -12 16 -12 12 0 -6 16 -44 33 -53 24z" /><path d="M5133 384 c9 -15 -10 -30 -50 -39 -27 -5 -33 -4 -33 10 0 14 6 16 28 10 22 -5 25 -4 14 6 -10 11 -21 11 -58 1 -25 -7 -50 -10 -55 -7 -12 8 -11 -6 1 -25 6 -9 10 -10 10 -3 0 21 40 26 54 7 10 -12 20 -15 40 -10 17 4 34 2 42 -5 11 -9 19 -8 34 6 16 14 23 16 32 7 16 -16 58 -15 58 1 -1 29 -18 40 -56 34 -23 -4 -43 -2 -53 6 -10 8 -12 8 -8 1z m97 -29 c0 -17 -2 -18 -24 -9 -23 9 -20 24 4 24 11 0 20 -7 20 -15z m-80 -15 c0 -5 -4 -10 -10 -10 -5 0 -10 5 -10 10 0 6 5 10 10 10 6 0 10 -4 10 -10z" /><path d="M5623 382 c-7 -4 -9 -13 -5 -19 6 -9 11 -6 20 7 13 21 6 26 -15 12z" /><path d="M6060 380 c-18 -12 -2 -12 25 0 13 6 15 9 5 9 -8 0 -22 -4 -30 -9z" /><path d="M4530 364 c0 -17 5 -20 30 -16 17 2 30 9 30 14 0 5 -10 6 -21 3 -14 -5 -25 -2 -30 6 -6 11 -9 9 -9 -7z" /><path d="M4634 365 c-4 -9 -4 -19 0 -22 3 -4 6 1 6 10 0 10 8 17 18 17 14 0 15 -2 2 -10 -12 -8 -10 -10 8 -10 30 0 24 24 -6 28 -13 2 -25 -3 -28 -13z" /><path d="M5867 365 c-4 -8 -1 -17 5 -21 7 -4 8 -3 4 5 -4 6 0 14 9 17 23 9 30 -3 14 -22 -13 -16 -12 -16 8 -5 14 7 20 17 17 26 -8 19 -50 19 -57 0z" /><path d="M6160 370 c0 -5 5 -10 11 -10 5 0 7 5 4 10 -3 6 -8 10 -11 10 -2 0 -4 -4 -4 -10z" /><path d="M6240 370 c0 -5 5 -10 11 -10 5 0 7 5 4 10 -3 6 -8 10 -11 10 -2 0 -4 -4 -4 -10z" /><path d="M4250 360 c0 -5 5 -10 10 -10 6 0 10 5 10 10 0 6 -4 10 -10 10 -5 0 -10 -4 -10 -10z" /><path d="M4867 350 c-3 -11 -2 -20 3 -20 4 0 10 9 13 20 3 11 2 20 -3 20 -4 0 -10 -9 -13 -20z" /><path d="M5957 353 c4 -11 8 -11 22 -1 9 7 17 13 19 14 2 1 -8 2 -22 2 -17 0 -23 -5 -19 -15z" /><path d="M3956 350 c6 -6 21 -6 39 -1 30 9 30 9 -9 10 -26 1 -37 -2 -30 -9z" /><path d="M4140 344 c0 -8 5 -12 10 -9 6 3 10 10 10 16 0 5 -4 9 -10 9 -5 0 -10 -7 -10 -16z" /><path d="M4745 350 c-18 -8 -17 -9 8 -9 16 -1 26 3 22 9 -3 6 -7 10 -8 9 -1 0 -11 -4 -22 -9z" /><path d="M5810 350 c0 -5 4 -10 9 -10 6 0 13 5 16 10 3 6 -1 10 -9 10 -9 0 -16 -4 -16 -10z" /><path d="M6058 348 c6 -6 18 -8 28 -6 14 3 12 5 -9 10 -19 3 -25 2 -19 -4z" /><path d="M3166 339 c6 -10 54 -17 59 -9 3 4 -11 10 -29 12 -19 2 -33 1 -30 -3z" /><path d="M4907 333 c6 -15 13 -16 31 -4 10 6 7 10 -11 13 -18 4 -24 1 -20 -9z" /><path d="M5590 340 c0 -5 5 -10 11 -10 5 0 7 5 4 10 -3 6 -8 10 -11 10 -2 0 -4 -4 -4 -10z" /><path d="M6140 340 c0 -5 5 -10 11 -10 5 0 7 5 4 10 -3 6 -8 10 -11 10 -2 0 -4 -4 -4 -10z" /><path d="M3090 325 c-11 -13 -8 -15 21 -14 19 0 27 3 19 6 -8 3 -18 10 -21 15 -3 5 -12 2 -19 -7z" /><path d="M2895 320 c-3 -5 -1 -10 4 -10 6 0 11 5 11 10 0 6 -2 10 -4 10 -3 0 -8 -4 -11 -10z" /><path d="M4268 313 c6 -2 18 -2 25 0 6 3 1 5 -13 5 -14 0 -19 -2 -12 -5z" /><path d="M2933 303 c9 -2 23 -2 30 0 6 3 -1 5 -18 5 -16 0 -22 -2 -12 -5z" /></g></svg>